G04*
G04 #@! TF.GenerationSoftware,Altium Limited,Altium Designer,22.7.1 (60)*
G04*
G04 Layer_Color=13813960*
%FSLAX25Y25*%
%MOIN*%
G70*
G04*
G04 #@! TF.SameCoordinates,4E350FCD-7793-4D70-B8A6-44CA439EF18F*
G04*
G04*
G04 #@! TF.FilePolarity,Positive*
G04*
G01*
G75*
G36*
X17949Y18747D02*
X16811D01*
Y21190D01*
X16692Y21107D01*
X16637Y21065D01*
X16581Y21031D01*
X16540Y20996D01*
X16505Y20968D01*
X16484Y20947D01*
X16477Y20940D01*
X16443Y20906D01*
X16394Y20864D01*
X16345Y20815D01*
X16290Y20760D01*
X16172Y20642D01*
X16054Y20517D01*
X15943Y20399D01*
X15894Y20343D01*
X15853Y20295D01*
X15818Y20260D01*
X15790Y20232D01*
X15777Y20211D01*
X15769Y20205D01*
X15672Y20100D01*
X15582Y20003D01*
X15492Y19913D01*
X15416Y19830D01*
X15339Y19760D01*
X15277Y19691D01*
X15214Y19636D01*
X15159Y19580D01*
X15069Y19504D01*
X15006Y19441D01*
X14965Y19413D01*
X14951Y19400D01*
X14791Y19282D01*
X14638Y19177D01*
X14500Y19094D01*
X14381Y19025D01*
X14277Y18976D01*
X14236Y18955D01*
X14201Y18935D01*
X14173Y18921D01*
X14146Y18914D01*
X14139Y18907D01*
X14132D01*
X13986Y18851D01*
X13840Y18817D01*
X13701Y18789D01*
X13569Y18768D01*
X13465Y18754D01*
X13417D01*
X13382Y18747D01*
X13348D01*
X13327D01*
X13313D01*
X13306D01*
X13167Y18754D01*
X13035Y18768D01*
X12910Y18796D01*
X12785Y18831D01*
X12674Y18872D01*
X12570Y18921D01*
X12473Y18969D01*
X12390Y19018D01*
X12307Y19073D01*
X12237Y19122D01*
X12175Y19171D01*
X12126Y19212D01*
X12091Y19247D01*
X12057Y19275D01*
X12043Y19288D01*
X12036Y19296D01*
X11946Y19400D01*
X11869Y19518D01*
X11800Y19636D01*
X11737Y19753D01*
X11689Y19878D01*
X11647Y20003D01*
X11613Y20121D01*
X11585Y20239D01*
X11564Y20350D01*
X11550Y20454D01*
X11536Y20545D01*
X11529Y20621D01*
X11522Y20690D01*
Y20781D01*
X11529Y20940D01*
X11543Y21093D01*
X11564Y21239D01*
X11592Y21371D01*
X11626Y21502D01*
X11661Y21620D01*
X11703Y21724D01*
X11744Y21829D01*
X11786Y21919D01*
X11828Y21995D01*
X11862Y22064D01*
X11897Y22120D01*
X11925Y22162D01*
X11946Y22196D01*
X11959Y22217D01*
X11966Y22224D01*
X12057Y22328D01*
X12154Y22419D01*
X12265Y22502D01*
X12383Y22571D01*
X12501Y22634D01*
X12626Y22689D01*
X12744Y22738D01*
X12862Y22779D01*
X12973Y22814D01*
X13077Y22842D01*
X13174Y22863D01*
X13257Y22876D01*
X13327Y22890D01*
X13382Y22897D01*
X13410Y22904D01*
X13424D01*
X13542Y21683D01*
X13445Y21676D01*
X13354Y21662D01*
X13195Y21627D01*
X13063Y21586D01*
X12959Y21544D01*
X12876Y21495D01*
X12820Y21461D01*
X12792Y21433D01*
X12778Y21426D01*
X12702Y21336D01*
X12640Y21232D01*
X12598Y21128D01*
X12570Y21031D01*
X12556Y20940D01*
X12542Y20871D01*
Y20808D01*
X12549Y20670D01*
X12577Y20552D01*
X12612Y20448D01*
X12653Y20357D01*
X12695Y20288D01*
X12730Y20239D01*
X12758Y20205D01*
X12765Y20198D01*
X12855Y20121D01*
X12959Y20066D01*
X13063Y20031D01*
X13160Y20003D01*
X13257Y19989D01*
X13327Y19976D01*
X13354D01*
X13375D01*
X13389D01*
X13396D01*
X13535Y19989D01*
X13674Y20017D01*
X13799Y20059D01*
X13910Y20100D01*
X14007Y20149D01*
X14083Y20191D01*
X14111Y20211D01*
X14132Y20219D01*
X14139Y20232D01*
X14146D01*
X14201Y20274D01*
X14270Y20330D01*
X14347Y20399D01*
X14423Y20468D01*
X14597Y20635D01*
X14770Y20815D01*
X14853Y20899D01*
X14937Y20982D01*
X15006Y21051D01*
X15069Y21121D01*
X15117Y21176D01*
X15159Y21218D01*
X15187Y21246D01*
X15193Y21252D01*
X15367Y21440D01*
X15534Y21607D01*
X15693Y21766D01*
X15839Y21905D01*
X15971Y22030D01*
X16103Y22141D01*
X16214Y22245D01*
X16318Y22328D01*
X16415Y22405D01*
X16491Y22467D01*
X16568Y22523D01*
X16623Y22564D01*
X16665Y22592D01*
X16700Y22620D01*
X16720Y22627D01*
X16727Y22634D01*
X16942Y22752D01*
X17157Y22842D01*
X17366Y22918D01*
X17553Y22974D01*
X17636Y22995D01*
X17713Y23008D01*
X17782Y23022D01*
X17838Y23036D01*
X17886Y23043D01*
X17921D01*
X17942Y23050D01*
X17949D01*
Y18747D01*
D02*
G37*
G36*
X15117Y17914D02*
X15423Y17894D01*
X15707Y17866D01*
X15964Y17831D01*
X16200Y17789D01*
X16408Y17741D01*
X16595Y17692D01*
X16762Y17637D01*
X16901Y17581D01*
X17026Y17533D01*
X17130Y17484D01*
X17213Y17443D01*
X17276Y17408D01*
X17317Y17373D01*
X17345Y17359D01*
X17352Y17352D01*
X17477Y17241D01*
X17588Y17123D01*
X17685Y16998D01*
X17768Y16873D01*
X17831Y16748D01*
X17893Y16624D01*
X17942Y16506D01*
X17976Y16388D01*
X18004Y16277D01*
X18032Y16172D01*
X18046Y16082D01*
X18053Y15999D01*
X18060Y15936D01*
X18067Y15888D01*
Y15846D01*
X18060Y15680D01*
X18039Y15520D01*
X18004Y15367D01*
X17963Y15229D01*
X17914Y15097D01*
X17858Y14979D01*
X17803Y14868D01*
X17740Y14771D01*
X17678Y14687D01*
X17623Y14611D01*
X17567Y14542D01*
X17518Y14493D01*
X17477Y14451D01*
X17442Y14417D01*
X17421Y14403D01*
X17414Y14396D01*
X17255Y14285D01*
X17074Y14188D01*
X16873Y14104D01*
X16672Y14028D01*
X16457Y13972D01*
X16235Y13917D01*
X16019Y13875D01*
X15804Y13841D01*
X15603Y13820D01*
X15416Y13799D01*
X15242Y13785D01*
X15096Y13771D01*
X15027D01*
X14971D01*
X14923Y13764D01*
X14874D01*
X14846D01*
X14819D01*
X14805D01*
X14798D01*
X14472Y13771D01*
X14166Y13792D01*
X13882Y13820D01*
X13625Y13861D01*
X13389Y13910D01*
X13174Y13959D01*
X12980Y14021D01*
X12813Y14077D01*
X12660Y14132D01*
X12536Y14188D01*
X12424Y14243D01*
X12341Y14292D01*
X12272Y14333D01*
X12223Y14361D01*
X12195Y14382D01*
X12189Y14389D01*
X12071Y14493D01*
X11966Y14604D01*
X11876Y14722D01*
X11800Y14840D01*
X11737Y14958D01*
X11682Y15083D01*
X11640Y15201D01*
X11605Y15312D01*
X11578Y15423D01*
X11557Y15527D01*
X11543Y15617D01*
X11529Y15694D01*
Y15756D01*
X11522Y15805D01*
Y15846D01*
X11529Y16013D01*
X11550Y16172D01*
X11585Y16325D01*
X11626Y16464D01*
X11675Y16596D01*
X11730Y16714D01*
X11793Y16825D01*
X11848Y16922D01*
X11911Y17005D01*
X11973Y17082D01*
X12029Y17144D01*
X12077Y17200D01*
X12119Y17241D01*
X12154Y17269D01*
X12175Y17290D01*
X12182Y17297D01*
X12341Y17408D01*
X12522Y17505D01*
X12716Y17588D01*
X12924Y17658D01*
X13139Y17720D01*
X13354Y17769D01*
X13569Y17810D01*
X13785Y17845D01*
X13986Y17866D01*
X14173Y17887D01*
X14340Y17900D01*
X14493Y17914D01*
X14555D01*
X14611D01*
X14659Y17921D01*
X14708D01*
X14736D01*
X14763D01*
X14777D01*
X14784D01*
X15117Y17914D01*
D02*
G37*
G36*
X17949Y8795D02*
X16811D01*
Y11238D01*
X16692Y11155D01*
X16637Y11113D01*
X16581Y11079D01*
X16540Y11044D01*
X16505Y11016D01*
X16484Y10995D01*
X16477Y10988D01*
X16443Y10954D01*
X16394Y10912D01*
X16345Y10863D01*
X16290Y10808D01*
X16172Y10690D01*
X16054Y10565D01*
X15943Y10447D01*
X15894Y10391D01*
X15853Y10343D01*
X15818Y10308D01*
X15790Y10280D01*
X15777Y10260D01*
X15769Y10253D01*
X15672Y10149D01*
X15582Y10051D01*
X15492Y9961D01*
X15416Y9878D01*
X15339Y9809D01*
X15277Y9739D01*
X15214Y9684D01*
X15159Y9628D01*
X15069Y9552D01*
X15006Y9489D01*
X14965Y9461D01*
X14951Y9448D01*
X14791Y9330D01*
X14638Y9225D01*
X14500Y9142D01*
X14381Y9073D01*
X14277Y9024D01*
X14236Y9003D01*
X14201Y8983D01*
X14173Y8969D01*
X14146Y8962D01*
X14139Y8955D01*
X14132D01*
X13986Y8899D01*
X13840Y8865D01*
X13701Y8837D01*
X13569Y8816D01*
X13465Y8802D01*
X13417D01*
X13382Y8795D01*
X13348D01*
X13327D01*
X13313D01*
X13306D01*
X13167Y8802D01*
X13035Y8816D01*
X12910Y8844D01*
X12785Y8879D01*
X12674Y8920D01*
X12570Y8969D01*
X12473Y9017D01*
X12390Y9066D01*
X12307Y9121D01*
X12237Y9170D01*
X12175Y9219D01*
X12126Y9260D01*
X12091Y9295D01*
X12057Y9323D01*
X12043Y9337D01*
X12036Y9343D01*
X11946Y9448D01*
X11869Y9566D01*
X11800Y9684D01*
X11737Y9802D01*
X11689Y9927D01*
X11647Y10051D01*
X11613Y10169D01*
X11585Y10287D01*
X11564Y10398D01*
X11550Y10503D01*
X11536Y10593D01*
X11529Y10669D01*
X11522Y10739D01*
Y10829D01*
X11529Y10988D01*
X11543Y11141D01*
X11564Y11287D01*
X11592Y11419D01*
X11626Y11550D01*
X11661Y11668D01*
X11703Y11772D01*
X11744Y11877D01*
X11786Y11967D01*
X11828Y12043D01*
X11862Y12113D01*
X11897Y12168D01*
X11925Y12210D01*
X11946Y12244D01*
X11959Y12265D01*
X11966Y12272D01*
X12057Y12376D01*
X12154Y12466D01*
X12265Y12550D01*
X12383Y12619D01*
X12501Y12682D01*
X12626Y12737D01*
X12744Y12786D01*
X12862Y12827D01*
X12973Y12862D01*
X13077Y12890D01*
X13174Y12911D01*
X13257Y12924D01*
X13327Y12938D01*
X13382Y12945D01*
X13410Y12952D01*
X13424D01*
X13542Y11731D01*
X13445Y11724D01*
X13354Y11710D01*
X13195Y11675D01*
X13063Y11634D01*
X12959Y11592D01*
X12876Y11543D01*
X12820Y11509D01*
X12792Y11481D01*
X12778Y11474D01*
X12702Y11384D01*
X12640Y11280D01*
X12598Y11176D01*
X12570Y11079D01*
X12556Y10988D01*
X12542Y10919D01*
Y10856D01*
X12549Y10718D01*
X12577Y10600D01*
X12612Y10496D01*
X12653Y10405D01*
X12695Y10336D01*
X12730Y10287D01*
X12758Y10253D01*
X12765Y10246D01*
X12855Y10169D01*
X12959Y10114D01*
X13063Y10079D01*
X13160Y10051D01*
X13257Y10037D01*
X13327Y10024D01*
X13354D01*
X13375D01*
X13389D01*
X13396D01*
X13535Y10037D01*
X13674Y10065D01*
X13799Y10107D01*
X13910Y10149D01*
X14007Y10197D01*
X14083Y10239D01*
X14111Y10260D01*
X14132Y10266D01*
X14139Y10280D01*
X14146D01*
X14201Y10322D01*
X14270Y10378D01*
X14347Y10447D01*
X14423Y10516D01*
X14597Y10683D01*
X14770Y10863D01*
X14853Y10947D01*
X14937Y11030D01*
X15006Y11099D01*
X15069Y11169D01*
X15117Y11224D01*
X15159Y11266D01*
X15187Y11294D01*
X15193Y11301D01*
X15367Y11488D01*
X15534Y11654D01*
X15693Y11814D01*
X15839Y11953D01*
X15971Y12078D01*
X16103Y12189D01*
X16214Y12293D01*
X16318Y12376D01*
X16415Y12453D01*
X16491Y12515D01*
X16568Y12571D01*
X16623Y12612D01*
X16665Y12640D01*
X16700Y12668D01*
X16720Y12675D01*
X16727Y12682D01*
X16942Y12800D01*
X17157Y12890D01*
X17366Y12966D01*
X17553Y13022D01*
X17636Y13043D01*
X17713Y13056D01*
X17782Y13070D01*
X17838Y13084D01*
X17886Y13091D01*
X17921D01*
X17942Y13098D01*
X17949D01*
Y8795D01*
D02*
G37*
G36*
X15117Y7962D02*
X15423Y7942D01*
X15707Y7914D01*
X15964Y7879D01*
X16200Y7837D01*
X16408Y7789D01*
X16595Y7740D01*
X16762Y7685D01*
X16901Y7629D01*
X17026Y7581D01*
X17130Y7532D01*
X17213Y7491D01*
X17276Y7456D01*
X17317Y7421D01*
X17345Y7407D01*
X17352Y7400D01*
X17477Y7289D01*
X17588Y7171D01*
X17685Y7046D01*
X17768Y6921D01*
X17831Y6797D01*
X17893Y6672D01*
X17942Y6554D01*
X17976Y6436D01*
X18004Y6325D01*
X18032Y6221D01*
X18046Y6130D01*
X18053Y6047D01*
X18060Y5985D01*
X18067Y5936D01*
Y5894D01*
X18060Y5728D01*
X18039Y5568D01*
X18004Y5415D01*
X17963Y5277D01*
X17914Y5145D01*
X17858Y5027D01*
X17803Y4916D01*
X17740Y4819D01*
X17678Y4735D01*
X17623Y4659D01*
X17567Y4590D01*
X17518Y4541D01*
X17477Y4499D01*
X17442Y4465D01*
X17421Y4451D01*
X17414Y4444D01*
X17255Y4333D01*
X17074Y4236D01*
X16873Y4152D01*
X16672Y4076D01*
X16457Y4021D01*
X16235Y3965D01*
X16019Y3923D01*
X15804Y3889D01*
X15603Y3868D01*
X15416Y3847D01*
X15242Y3833D01*
X15096Y3819D01*
X15027D01*
X14971D01*
X14923Y3812D01*
X14874D01*
X14846D01*
X14819D01*
X14805D01*
X14798D01*
X14472Y3819D01*
X14166Y3840D01*
X13882Y3868D01*
X13625Y3909D01*
X13389Y3958D01*
X13174Y4007D01*
X12980Y4069D01*
X12813Y4125D01*
X12660Y4180D01*
X12536Y4236D01*
X12424Y4291D01*
X12341Y4340D01*
X12272Y4381D01*
X12223Y4409D01*
X12195Y4430D01*
X12189Y4437D01*
X12071Y4541D01*
X11966Y4652D01*
X11876Y4770D01*
X11800Y4888D01*
X11737Y5006D01*
X11682Y5131D01*
X11640Y5249D01*
X11605Y5360D01*
X11578Y5471D01*
X11557Y5575D01*
X11543Y5665D01*
X11529Y5742D01*
Y5804D01*
X11522Y5853D01*
Y5894D01*
X11529Y6061D01*
X11550Y6221D01*
X11585Y6373D01*
X11626Y6512D01*
X11675Y6644D01*
X11730Y6762D01*
X11793Y6873D01*
X11848Y6970D01*
X11911Y7053D01*
X11973Y7130D01*
X12029Y7192D01*
X12077Y7248D01*
X12119Y7289D01*
X12154Y7317D01*
X12175Y7338D01*
X12182Y7345D01*
X12341Y7456D01*
X12522Y7553D01*
X12716Y7636D01*
X12924Y7706D01*
X13139Y7768D01*
X13354Y7817D01*
X13569Y7858D01*
X13785Y7893D01*
X13986Y7914D01*
X14173Y7935D01*
X14340Y7949D01*
X14493Y7962D01*
X14555D01*
X14611D01*
X14659Y7969D01*
X14708D01*
X14736D01*
X14763D01*
X14777D01*
X14784D01*
X15117Y7962D01*
D02*
G37*
G36*
X16241Y453D02*
X15013D01*
Y2868D01*
X16241D01*
Y453D01*
D02*
G37*
G36*
X15117Y9D02*
X15423Y-12D01*
X15707Y-39D01*
X15964Y-74D01*
X16200Y-116D01*
X16408Y-164D01*
X16595Y-213D01*
X16762Y-268D01*
X16901Y-324D01*
X17026Y-372D01*
X17130Y-421D01*
X17213Y-463D01*
X17276Y-497D01*
X17317Y-532D01*
X17345Y-546D01*
X17352Y-553D01*
X17477Y-664D01*
X17588Y-782D01*
X17685Y-907D01*
X17768Y-1032D01*
X17831Y-1157D01*
X17893Y-1282D01*
X17942Y-1400D01*
X17976Y-1518D01*
X18004Y-1629D01*
X18032Y-1733D01*
X18046Y-1823D01*
X18053Y-1906D01*
X18060Y-1969D01*
X18067Y-2017D01*
Y-2059D01*
X18060Y-2225D01*
X18039Y-2385D01*
X18004Y-2538D01*
X17963Y-2677D01*
X17914Y-2808D01*
X17858Y-2926D01*
X17803Y-3038D01*
X17740Y-3135D01*
X17678Y-3218D01*
X17623Y-3294D01*
X17567Y-3364D01*
X17518Y-3412D01*
X17477Y-3454D01*
X17442Y-3489D01*
X17421Y-3502D01*
X17414Y-3509D01*
X17255Y-3620D01*
X17074Y-3718D01*
X16873Y-3801D01*
X16672Y-3877D01*
X16457Y-3933D01*
X16235Y-3988D01*
X16019Y-4030D01*
X15804Y-4065D01*
X15603Y-4085D01*
X15416Y-4106D01*
X15242Y-4120D01*
X15096Y-4134D01*
X15027D01*
X14971D01*
X14923Y-4141D01*
X14874D01*
X14846D01*
X14819D01*
X14805D01*
X14798D01*
X14472Y-4134D01*
X14166Y-4113D01*
X13882Y-4085D01*
X13625Y-4044D01*
X13389Y-3995D01*
X13174Y-3947D01*
X12980Y-3884D01*
X12813Y-3829D01*
X12660Y-3773D01*
X12536Y-3718D01*
X12424Y-3662D01*
X12341Y-3613D01*
X12272Y-3572D01*
X12223Y-3544D01*
X12195Y-3523D01*
X12189Y-3516D01*
X12071Y-3412D01*
X11966Y-3301D01*
X11876Y-3183D01*
X11800Y-3065D01*
X11737Y-2947D01*
X11682Y-2822D01*
X11640Y-2704D01*
X11605Y-2593D01*
X11578Y-2482D01*
X11557Y-2378D01*
X11543Y-2288D01*
X11529Y-2212D01*
Y-2149D01*
X11522Y-2101D01*
Y-2059D01*
X11529Y-1892D01*
X11550Y-1733D01*
X11585Y-1580D01*
X11626Y-1441D01*
X11675Y-1309D01*
X11730Y-1191D01*
X11793Y-1080D01*
X11848Y-983D01*
X11911Y-900D01*
X11973Y-824D01*
X12029Y-761D01*
X12077Y-706D01*
X12119Y-664D01*
X12154Y-636D01*
X12175Y-615D01*
X12182Y-609D01*
X12341Y-497D01*
X12522Y-400D01*
X12716Y-317D01*
X12924Y-248D01*
X13139Y-185D01*
X13354Y-137D01*
X13569Y-95D01*
X13785Y-60D01*
X13986Y-39D01*
X14173Y-19D01*
X14340Y-5D01*
X14493Y9D01*
X14555D01*
X14611D01*
X14659Y16D01*
X14708D01*
X14736D01*
X14763D01*
X14777D01*
X14784D01*
X15117Y9D01*
D02*
G37*
G36*
X15159Y-4974D02*
X15443Y-4995D01*
X15714Y-5022D01*
X15957Y-5064D01*
X16179Y-5113D01*
X16380Y-5161D01*
X16561Y-5217D01*
X16727Y-5279D01*
X16866Y-5335D01*
X16984Y-5390D01*
X17088Y-5439D01*
X17171Y-5487D01*
X17234Y-5529D01*
X17282Y-5557D01*
X17310Y-5578D01*
X17317Y-5584D01*
X17449Y-5702D01*
X17567Y-5834D01*
X17664Y-5966D01*
X17747Y-6098D01*
X17824Y-6230D01*
X17886Y-6362D01*
X17935Y-6494D01*
X17969Y-6618D01*
X18004Y-6736D01*
X18025Y-6841D01*
X18046Y-6938D01*
X18053Y-7021D01*
X18060Y-7090D01*
X18067Y-7139D01*
Y-7181D01*
X18060Y-7347D01*
X18039Y-7507D01*
X18011Y-7653D01*
X17976Y-7791D01*
X17928Y-7923D01*
X17879Y-8048D01*
X17824Y-8159D01*
X17768Y-8256D01*
X17720Y-8347D01*
X17664Y-8430D01*
X17616Y-8499D01*
X17567Y-8555D01*
X17532Y-8603D01*
X17504Y-8631D01*
X17484Y-8652D01*
X17477Y-8659D01*
X17359Y-8763D01*
X17241Y-8853D01*
X17109Y-8929D01*
X16984Y-8999D01*
X16852Y-9054D01*
X16720Y-9103D01*
X16588Y-9138D01*
X16470Y-9172D01*
X16353Y-9193D01*
X16241Y-9214D01*
X16144Y-9221D01*
X16061Y-9235D01*
X15999D01*
X15943Y-9242D01*
X15915D01*
X15901D01*
X15735Y-9235D01*
X15568Y-9221D01*
X15423Y-9193D01*
X15277Y-9159D01*
X15145Y-9117D01*
X15020Y-9068D01*
X14902Y-9020D01*
X14805Y-8971D01*
X14708Y-8916D01*
X14631Y-8867D01*
X14562Y-8818D01*
X14500Y-8777D01*
X14458Y-8742D01*
X14423Y-8714D01*
X14402Y-8700D01*
X14395Y-8694D01*
X14291Y-8589D01*
X14201Y-8478D01*
X14125Y-8367D01*
X14055Y-8256D01*
X14000Y-8145D01*
X13951Y-8034D01*
X13910Y-7930D01*
X13882Y-7826D01*
X13854Y-7736D01*
X13833Y-7646D01*
X13826Y-7569D01*
X13812Y-7507D01*
Y-7451D01*
X13805Y-7410D01*
Y-7375D01*
X13812Y-7250D01*
X13826Y-7132D01*
X13854Y-7014D01*
X13889Y-6910D01*
X13930Y-6806D01*
X13979Y-6716D01*
X14028Y-6625D01*
X14076Y-6549D01*
X14132Y-6473D01*
X14180Y-6410D01*
X14229Y-6362D01*
X14270Y-6313D01*
X14305Y-6278D01*
X14333Y-6251D01*
X14347Y-6237D01*
X14354Y-6230D01*
X14153Y-6244D01*
X13972Y-6265D01*
X13805Y-6292D01*
X13660Y-6313D01*
X13521Y-6341D01*
X13403Y-6369D01*
X13299Y-6403D01*
X13209Y-6431D01*
X13132Y-6459D01*
X13063Y-6480D01*
X13007Y-6508D01*
X12966Y-6528D01*
X12938Y-6542D01*
X12910Y-6556D01*
X12903Y-6570D01*
X12896D01*
X12834Y-6625D01*
X12778Y-6674D01*
X12730Y-6729D01*
X12688Y-6785D01*
X12626Y-6896D01*
X12584Y-7000D01*
X12563Y-7090D01*
X12549Y-7167D01*
X12542Y-7194D01*
Y-7229D01*
X12549Y-7333D01*
X12570Y-7423D01*
X12598Y-7507D01*
X12633Y-7576D01*
X12667Y-7632D01*
X12695Y-7666D01*
X12716Y-7694D01*
X12723Y-7701D01*
X12792Y-7764D01*
X12882Y-7819D01*
X12966Y-7861D01*
X13056Y-7888D01*
X13132Y-7909D01*
X13195Y-7930D01*
X13243Y-7937D01*
X13250D01*
X13257D01*
X13132Y-9124D01*
X12987Y-9096D01*
X12855Y-9061D01*
X12730Y-9020D01*
X12612Y-8971D01*
X12508Y-8923D01*
X12411Y-8874D01*
X12320Y-8818D01*
X12244Y-8770D01*
X12168Y-8721D01*
X12112Y-8673D01*
X12057Y-8631D01*
X12015Y-8589D01*
X11980Y-8562D01*
X11959Y-8534D01*
X11946Y-8520D01*
X11939Y-8513D01*
X11862Y-8423D01*
X11800Y-8326D01*
X11744Y-8222D01*
X11696Y-8124D01*
X11654Y-8020D01*
X11626Y-7923D01*
X11571Y-7729D01*
X11557Y-7646D01*
X11543Y-7562D01*
X11536Y-7486D01*
X11529Y-7430D01*
X11522Y-7375D01*
Y-7305D01*
X11529Y-7118D01*
X11557Y-6931D01*
X11592Y-6764D01*
X11647Y-6605D01*
X11703Y-6452D01*
X11772Y-6313D01*
X11841Y-6181D01*
X11911Y-6070D01*
X11987Y-5966D01*
X12057Y-5876D01*
X12126Y-5793D01*
X12182Y-5730D01*
X12237Y-5682D01*
X12272Y-5640D01*
X12299Y-5619D01*
X12307Y-5612D01*
X12466Y-5501D01*
X12640Y-5397D01*
X12827Y-5314D01*
X13028Y-5237D01*
X13236Y-5175D01*
X13452Y-5126D01*
X13660Y-5085D01*
X13868Y-5050D01*
X14062Y-5022D01*
X14250Y-5001D01*
X14416Y-4988D01*
X14562Y-4974D01*
X14624D01*
X14680D01*
X14728Y-4967D01*
X14770D01*
X14805D01*
X14826D01*
X14840D01*
X14846D01*
X15159Y-4974D01*
D02*
G37*
G36*
X16241Y-12476D02*
X15013D01*
Y-10061D01*
X16241D01*
Y-12476D01*
D02*
G37*
G36*
X16401Y-12892D02*
X16547Y-12927D01*
X16679Y-12969D01*
X16804Y-13010D01*
X16922Y-13066D01*
X17026Y-13121D01*
X17123Y-13177D01*
X17213Y-13232D01*
X17296Y-13295D01*
X17366Y-13343D01*
X17428Y-13399D01*
X17477Y-13441D01*
X17518Y-13475D01*
X17546Y-13503D01*
X17560Y-13524D01*
X17567Y-13531D01*
X17657Y-13642D01*
X17733Y-13760D01*
X17796Y-13878D01*
X17858Y-14003D01*
X17907Y-14121D01*
X17942Y-14239D01*
X17976Y-14357D01*
X18004Y-14468D01*
X18025Y-14572D01*
X18039Y-14669D01*
X18053Y-14759D01*
X18060Y-14829D01*
Y-14891D01*
X18067Y-14933D01*
Y-14974D01*
X18060Y-15141D01*
X18039Y-15307D01*
X18011Y-15460D01*
X17976Y-15606D01*
X17928Y-15738D01*
X17879Y-15869D01*
X17824Y-15988D01*
X17768Y-16092D01*
X17720Y-16189D01*
X17664Y-16272D01*
X17616Y-16341D01*
X17567Y-16404D01*
X17532Y-16453D01*
X17504Y-16487D01*
X17484Y-16508D01*
X17477Y-16515D01*
X17359Y-16626D01*
X17241Y-16716D01*
X17123Y-16800D01*
X16998Y-16869D01*
X16880Y-16931D01*
X16762Y-16980D01*
X16644Y-17021D01*
X16533Y-17056D01*
X16429Y-17084D01*
X16339Y-17098D01*
X16255Y-17112D01*
X16179Y-17126D01*
X16124D01*
X16075Y-17133D01*
X16047D01*
X16040D01*
X15936Y-17126D01*
X15832Y-17119D01*
X15638Y-17084D01*
X15471Y-17029D01*
X15325Y-16966D01*
X15263Y-16938D01*
X15207Y-16904D01*
X15159Y-16876D01*
X15117Y-16855D01*
X15089Y-16827D01*
X15069Y-16813D01*
X15055Y-16806D01*
X15048Y-16800D01*
X14971Y-16737D01*
X14902Y-16668D01*
X14791Y-16529D01*
X14694Y-16383D01*
X14624Y-16237D01*
X14576Y-16119D01*
X14555Y-16064D01*
X14541Y-16015D01*
X14527Y-15980D01*
X14520Y-15953D01*
X14513Y-15932D01*
Y-15925D01*
X14416Y-16085D01*
X14312Y-16230D01*
X14201Y-16355D01*
X14090Y-16459D01*
X13979Y-16550D01*
X13868Y-16626D01*
X13757Y-16681D01*
X13653Y-16730D01*
X13556Y-16772D01*
X13458Y-16800D01*
X13375Y-16820D01*
X13306Y-16834D01*
X13250Y-16841D01*
X13202Y-16848D01*
X13174D01*
X13167D01*
X13056Y-16841D01*
X12952Y-16827D01*
X12848Y-16806D01*
X12751Y-16779D01*
X12570Y-16702D01*
X12417Y-16619D01*
X12348Y-16577D01*
X12286Y-16536D01*
X12230Y-16494D01*
X12189Y-16459D01*
X12154Y-16432D01*
X12126Y-16411D01*
X12112Y-16397D01*
X12105Y-16390D01*
X12001Y-16286D01*
X11911Y-16175D01*
X11834Y-16057D01*
X11765Y-15932D01*
X11710Y-15814D01*
X11661Y-15696D01*
X11626Y-15578D01*
X11592Y-15460D01*
X11571Y-15356D01*
X11550Y-15259D01*
X11543Y-15169D01*
X11529Y-15092D01*
Y-15030D01*
X11522Y-14981D01*
Y-14940D01*
X11529Y-14745D01*
X11550Y-14565D01*
X11585Y-14398D01*
X11619Y-14259D01*
X11640Y-14197D01*
X11661Y-14141D01*
X11675Y-14093D01*
X11689Y-14051D01*
X11703Y-14017D01*
X11717Y-13996D01*
X11723Y-13982D01*
Y-13975D01*
X11807Y-13822D01*
X11897Y-13690D01*
X11987Y-13579D01*
X12077Y-13489D01*
X12154Y-13413D01*
X12223Y-13357D01*
X12265Y-13329D01*
X12272Y-13316D01*
X12279D01*
X12417Y-13232D01*
X12570Y-13163D01*
X12723Y-13101D01*
X12876Y-13052D01*
X13007Y-13010D01*
X13063Y-12996D01*
X13112Y-12982D01*
X13153Y-12976D01*
X13181Y-12969D01*
X13202Y-12962D01*
X13209D01*
X13396Y-14093D01*
X13250Y-14121D01*
X13118Y-14155D01*
X13014Y-14197D01*
X12924Y-14246D01*
X12855Y-14294D01*
X12806Y-14329D01*
X12771Y-14357D01*
X12765Y-14364D01*
X12688Y-14454D01*
X12633Y-14544D01*
X12598Y-14634D01*
X12570Y-14717D01*
X12556Y-14794D01*
X12542Y-14849D01*
Y-14905D01*
X12549Y-15023D01*
X12570Y-15127D01*
X12605Y-15210D01*
X12640Y-15286D01*
X12674Y-15349D01*
X12709Y-15391D01*
X12730Y-15418D01*
X12737Y-15425D01*
X12813Y-15488D01*
X12896Y-15536D01*
X12987Y-15571D01*
X13063Y-15599D01*
X13139Y-15613D01*
X13195Y-15620D01*
X13236D01*
X13243D01*
X13250D01*
X13389Y-15606D01*
X13507Y-15578D01*
X13611Y-15536D01*
X13701Y-15488D01*
X13771Y-15432D01*
X13819Y-15391D01*
X13847Y-15363D01*
X13861Y-15349D01*
X13930Y-15238D01*
X13986Y-15120D01*
X14028Y-14995D01*
X14048Y-14870D01*
X14062Y-14759D01*
Y-14710D01*
X14069Y-14669D01*
Y-14586D01*
X15069Y-14454D01*
X15034Y-14572D01*
X15013Y-14683D01*
X14992Y-14773D01*
X14985Y-14856D01*
X14978Y-14926D01*
X14971Y-14974D01*
Y-15016D01*
X14985Y-15148D01*
X15013Y-15266D01*
X15062Y-15370D01*
X15110Y-15460D01*
X15159Y-15529D01*
X15207Y-15585D01*
X15235Y-15613D01*
X15249Y-15627D01*
X15360Y-15710D01*
X15478Y-15772D01*
X15603Y-15814D01*
X15721Y-15849D01*
X15825Y-15863D01*
X15867Y-15869D01*
X15908D01*
X15943Y-15876D01*
X15964D01*
X15978D01*
X15985D01*
X16158Y-15863D01*
X16311Y-15835D01*
X16443Y-15793D01*
X16554Y-15745D01*
X16644Y-15696D01*
X16706Y-15654D01*
X16748Y-15627D01*
X16762Y-15613D01*
X16859Y-15509D01*
X16928Y-15398D01*
X16977Y-15293D01*
X17012Y-15189D01*
X17033Y-15099D01*
X17040Y-15030D01*
X17047Y-15002D01*
Y-14967D01*
X17040Y-14842D01*
X17012Y-14724D01*
X16970Y-14620D01*
X16928Y-14530D01*
X16887Y-14461D01*
X16845Y-14405D01*
X16817Y-14377D01*
X16811Y-14364D01*
X16713Y-14280D01*
X16595Y-14211D01*
X16484Y-14155D01*
X16366Y-14121D01*
X16269Y-14086D01*
X16186Y-14072D01*
X16151Y-14065D01*
X16130Y-14058D01*
X16116D01*
X16110D01*
X16255Y-12871D01*
X16401Y-12892D01*
D02*
G37*
G36*
X15117Y-17896D02*
X15423Y-17917D01*
X15707Y-17945D01*
X15964Y-17979D01*
X16200Y-18021D01*
X16408Y-18069D01*
X16595Y-18118D01*
X16762Y-18174D01*
X16901Y-18229D01*
X17026Y-18278D01*
X17130Y-18326D01*
X17213Y-18368D01*
X17276Y-18403D01*
X17317Y-18437D01*
X17345Y-18451D01*
X17352Y-18458D01*
X17477Y-18569D01*
X17588Y-18687D01*
X17685Y-18812D01*
X17768Y-18937D01*
X17831Y-19062D01*
X17893Y-19187D01*
X17942Y-19305D01*
X17976Y-19423D01*
X18004Y-19534D01*
X18032Y-19638D01*
X18046Y-19728D01*
X18053Y-19811D01*
X18060Y-19874D01*
X18067Y-19922D01*
Y-19964D01*
X18060Y-20131D01*
X18039Y-20290D01*
X18004Y-20443D01*
X17963Y-20582D01*
X17914Y-20714D01*
X17858Y-20832D01*
X17803Y-20943D01*
X17740Y-21040D01*
X17678Y-21123D01*
X17623Y-21199D01*
X17567Y-21269D01*
X17518Y-21317D01*
X17477Y-21359D01*
X17442Y-21394D01*
X17421Y-21408D01*
X17414Y-21415D01*
X17255Y-21526D01*
X17074Y-21623D01*
X16873Y-21706D01*
X16672Y-21782D01*
X16457Y-21838D01*
X16235Y-21893D01*
X16019Y-21935D01*
X15804Y-21970D01*
X15603Y-21991D01*
X15416Y-22011D01*
X15242Y-22025D01*
X15096Y-22039D01*
X15027D01*
X14971D01*
X14923Y-22046D01*
X14874D01*
X14846D01*
X14819D01*
X14805D01*
X14798D01*
X14472Y-22039D01*
X14166Y-22018D01*
X13882Y-21991D01*
X13625Y-21949D01*
X13389Y-21900D01*
X13174Y-21852D01*
X12980Y-21789D01*
X12813Y-21734D01*
X12660Y-21678D01*
X12536Y-21623D01*
X12424Y-21567D01*
X12341Y-21519D01*
X12272Y-21477D01*
X12223Y-21449D01*
X12195Y-21429D01*
X12189Y-21421D01*
X12071Y-21317D01*
X11966Y-21206D01*
X11876Y-21088D01*
X11800Y-20970D01*
X11737Y-20852D01*
X11682Y-20728D01*
X11640Y-20609D01*
X11605Y-20498D01*
X11578Y-20388D01*
X11557Y-20283D01*
X11543Y-20193D01*
X11529Y-20117D01*
Y-20054D01*
X11522Y-20006D01*
Y-19964D01*
X11529Y-19798D01*
X11550Y-19638D01*
X11585Y-19485D01*
X11626Y-19346D01*
X11675Y-19215D01*
X11730Y-19097D01*
X11793Y-18986D01*
X11848Y-18888D01*
X11911Y-18805D01*
X11973Y-18729D01*
X12029Y-18666D01*
X12077Y-18611D01*
X12119Y-18569D01*
X12154Y-18541D01*
X12175Y-18521D01*
X12182Y-18514D01*
X12341Y-18403D01*
X12522Y-18305D01*
X12716Y-18222D01*
X12924Y-18153D01*
X13139Y-18090D01*
X13354Y-18042D01*
X13569Y-18000D01*
X13785Y-17965D01*
X13986Y-17945D01*
X14173Y-17924D01*
X14340Y-17910D01*
X14493Y-17896D01*
X14555D01*
X14611D01*
X14659Y-17889D01*
X14708D01*
X14736D01*
X14763D01*
X14777D01*
X14784D01*
X15117Y-17896D01*
D02*
G37*
G36*
X4638Y26196D02*
X3555D01*
Y29409D01*
X-1712D01*
Y30700D01*
X4638D01*
Y26196D01*
D02*
G37*
G36*
Y23982D02*
X2223D01*
Y22983D01*
X2216Y22830D01*
Y22691D01*
X2209Y22559D01*
X2202Y22441D01*
X2195Y22330D01*
X2188Y22226D01*
X2174Y22136D01*
X2167Y22060D01*
X2160Y21990D01*
X2153Y21928D01*
X2146Y21879D01*
X2139Y21845D01*
Y21817D01*
X2133Y21803D01*
Y21796D01*
X2098Y21671D01*
X2056Y21546D01*
X2008Y21435D01*
X1959Y21338D01*
X1911Y21248D01*
X1869Y21185D01*
X1841Y21144D01*
X1834Y21137D01*
Y21130D01*
X1737Y21012D01*
X1633Y20901D01*
X1529Y20810D01*
X1432Y20727D01*
X1341Y20665D01*
X1265Y20623D01*
X1237Y20602D01*
X1216Y20588D01*
X1209Y20582D01*
X1203D01*
X1043Y20512D01*
X876Y20457D01*
X710Y20422D01*
X557Y20394D01*
X481Y20387D01*
X418Y20380D01*
X356Y20373D01*
X307Y20366D01*
X266D01*
X238D01*
X217D01*
X210D01*
X71Y20373D01*
X-67Y20380D01*
X-192Y20401D01*
X-310Y20422D01*
X-421Y20450D01*
X-526Y20484D01*
X-616Y20519D01*
X-706Y20554D01*
X-782Y20588D01*
X-845Y20623D01*
X-907Y20651D01*
X-956Y20686D01*
X-990Y20706D01*
X-1018Y20727D01*
X-1032Y20734D01*
X-1039Y20741D01*
X-1129Y20810D01*
X-1206Y20887D01*
X-1275Y20963D01*
X-1344Y21046D01*
X-1455Y21199D01*
X-1539Y21345D01*
X-1601Y21470D01*
X-1622Y21525D01*
X-1643Y21574D01*
X-1657Y21609D01*
X-1664Y21636D01*
X-1671Y21657D01*
Y21664D01*
X-1684Y21741D01*
X-1705Y21831D01*
X-1719Y21935D01*
X-1726Y22053D01*
X-1733Y22178D01*
X-1747Y22303D01*
X-1754Y22566D01*
X-1761Y22691D01*
Y22802D01*
X-1768Y22913D01*
Y25273D01*
X4638D01*
Y23982D01*
D02*
G37*
G36*
X1779Y19527D02*
X2035Y19499D01*
X2278Y19457D01*
X2507Y19409D01*
X2723Y19346D01*
X2917Y19277D01*
X3097Y19200D01*
X3257Y19124D01*
X3403Y19048D01*
X3528Y18971D01*
X3632Y18902D01*
X3722Y18839D01*
X3791Y18791D01*
X3840Y18749D01*
X3875Y18722D01*
X3881Y18715D01*
X4034Y18555D01*
X4166Y18388D01*
X4284Y18215D01*
X4381Y18041D01*
X4464Y17868D01*
X4534Y17694D01*
X4596Y17521D01*
X4638Y17361D01*
X4679Y17209D01*
X4700Y17063D01*
X4721Y16938D01*
X4735Y16834D01*
X4742Y16744D01*
X4749Y16674D01*
Y16619D01*
X4742Y16431D01*
X4728Y16251D01*
X4700Y16077D01*
X4673Y15918D01*
X4631Y15765D01*
X4589Y15626D01*
X4541Y15495D01*
X4492Y15383D01*
X4451Y15272D01*
X4402Y15182D01*
X4360Y15106D01*
X4319Y15036D01*
X4291Y14988D01*
X4263Y14946D01*
X4249Y14925D01*
X4242Y14918D01*
X4138Y14794D01*
X4027Y14683D01*
X3909Y14578D01*
X3777Y14481D01*
X3652Y14398D01*
X3521Y14315D01*
X3389Y14245D01*
X3264Y14183D01*
X3146Y14127D01*
X3035Y14079D01*
X2931Y14044D01*
X2847Y14009D01*
X2771Y13982D01*
X2723Y13968D01*
X2688Y13954D01*
X2674D01*
X2285Y15210D01*
X2410Y15245D01*
X2535Y15279D01*
X2646Y15321D01*
X2743Y15363D01*
X2840Y15411D01*
X2924Y15453D01*
X3000Y15501D01*
X3070Y15543D01*
X3125Y15585D01*
X3181Y15626D01*
X3222Y15661D01*
X3257Y15689D01*
X3285Y15717D01*
X3305Y15737D01*
X3312Y15744D01*
X3319Y15751D01*
X3375Y15821D01*
X3423Y15897D01*
X3507Y16043D01*
X3562Y16188D01*
X3604Y16327D01*
X3625Y16452D01*
X3639Y16501D01*
Y16549D01*
X3646Y16584D01*
Y16633D01*
X3639Y16758D01*
X3625Y16883D01*
X3597Y17000D01*
X3562Y17105D01*
X3528Y17209D01*
X3486Y17299D01*
X3437Y17389D01*
X3389Y17465D01*
X3340Y17535D01*
X3292Y17597D01*
X3250Y17646D01*
X3215Y17694D01*
X3181Y17722D01*
X3153Y17750D01*
X3139Y17764D01*
X3132Y17771D01*
X3028Y17847D01*
X2910Y17910D01*
X2785Y17972D01*
X2646Y18021D01*
X2500Y18062D01*
X2362Y18097D01*
X2077Y18146D01*
X1938Y18166D01*
X1813Y18180D01*
X1702Y18187D01*
X1598Y18194D01*
X1522Y18201D01*
X1459D01*
X1418D01*
X1404D01*
X1196Y18194D01*
X1001Y18180D01*
X828Y18159D01*
X661Y18132D01*
X509Y18097D01*
X377Y18062D01*
X252Y18021D01*
X148Y17979D01*
X51Y17944D01*
X-33Y17903D01*
X-102Y17868D01*
X-158Y17833D01*
X-199Y17806D01*
X-234Y17785D01*
X-248Y17771D01*
X-255Y17764D01*
X-345Y17681D01*
X-421Y17583D01*
X-491Y17493D01*
X-553Y17396D01*
X-602Y17299D01*
X-643Y17202D01*
X-678Y17105D01*
X-706Y17014D01*
X-727Y16931D01*
X-741Y16855D01*
X-754Y16785D01*
X-761Y16723D01*
X-768Y16674D01*
Y16605D01*
X-754Y16418D01*
X-720Y16251D01*
X-678Y16105D01*
X-623Y15973D01*
X-567Y15869D01*
X-546Y15828D01*
X-526Y15793D01*
X-505Y15765D01*
X-491Y15744D01*
X-484Y15737D01*
X-477Y15730D01*
X-359Y15606D01*
X-234Y15501D01*
X-102Y15418D01*
X23Y15356D01*
X134Y15307D01*
X182Y15286D01*
X224Y15272D01*
X259Y15265D01*
X286Y15258D01*
X300Y15252D01*
X307D01*
X2Y13975D01*
X-137Y14016D01*
X-269Y14065D01*
X-387Y14120D01*
X-505Y14169D01*
X-609Y14224D01*
X-706Y14280D01*
X-789Y14335D01*
X-872Y14384D01*
X-942Y14440D01*
X-1004Y14481D01*
X-1053Y14523D01*
X-1094Y14564D01*
X-1129Y14592D01*
X-1150Y14613D01*
X-1164Y14627D01*
X-1171Y14634D01*
X-1296Y14780D01*
X-1400Y14925D01*
X-1497Y15085D01*
X-1573Y15245D01*
X-1643Y15404D01*
X-1698Y15564D01*
X-1747Y15717D01*
X-1782Y15862D01*
X-1816Y16001D01*
X-1837Y16133D01*
X-1851Y16251D01*
X-1858Y16348D01*
X-1865Y16431D01*
X-1872Y16487D01*
Y16542D01*
X-1865Y16785D01*
X-1837Y17021D01*
X-1788Y17243D01*
X-1733Y17451D01*
X-1664Y17646D01*
X-1594Y17819D01*
X-1511Y17986D01*
X-1428Y18132D01*
X-1344Y18263D01*
X-1268Y18382D01*
X-1192Y18479D01*
X-1122Y18562D01*
X-1067Y18631D01*
X-1025Y18673D01*
X-990Y18708D01*
X-984Y18715D01*
X-810Y18860D01*
X-623Y18985D01*
X-428Y19096D01*
X-227Y19186D01*
X-19Y19270D01*
X189Y19332D01*
X391Y19388D01*
X592Y19429D01*
X772Y19464D01*
X946Y19492D01*
X1106Y19506D01*
X1237Y19520D01*
X1348Y19527D01*
X1390Y19534D01*
X1432D01*
X1459D01*
X1480D01*
X1494D01*
X1501D01*
X1779Y19527D01*
D02*
G37*
G36*
X3347Y10713D02*
X4638D01*
Y9526D01*
X3347D01*
Y8728D01*
X2271D01*
Y9526D01*
X-1788D01*
Y10560D01*
X2278Y13329D01*
X3347D01*
Y10713D01*
D02*
G37*
G36*
X3090Y8166D02*
X3236Y8131D01*
X3368Y8089D01*
X3493Y8048D01*
X3611Y7992D01*
X3715Y7937D01*
X3812Y7881D01*
X3902Y7826D01*
X3985Y7763D01*
X4055Y7715D01*
X4117Y7659D01*
X4166Y7618D01*
X4208Y7583D01*
X4235Y7555D01*
X4249Y7534D01*
X4256Y7527D01*
X4346Y7416D01*
X4423Y7298D01*
X4485Y7180D01*
X4548Y7055D01*
X4596Y6937D01*
X4631Y6820D01*
X4666Y6701D01*
X4693Y6590D01*
X4714Y6486D01*
X4728Y6389D01*
X4742Y6299D01*
X4749Y6230D01*
Y6167D01*
X4756Y6126D01*
Y6084D01*
X4749Y5917D01*
X4728Y5751D01*
X4700Y5598D01*
X4666Y5452D01*
X4617Y5320D01*
X4569Y5189D01*
X4513Y5071D01*
X4457Y4967D01*
X4409Y4869D01*
X4353Y4786D01*
X4305Y4717D01*
X4256Y4654D01*
X4222Y4606D01*
X4194Y4571D01*
X4173Y4550D01*
X4166Y4543D01*
X4048Y4432D01*
X3930Y4342D01*
X3812Y4259D01*
X3687Y4189D01*
X3569Y4127D01*
X3451Y4078D01*
X3333Y4036D01*
X3222Y4002D01*
X3118Y3974D01*
X3028Y3960D01*
X2944Y3946D01*
X2868Y3932D01*
X2813D01*
X2764Y3926D01*
X2736D01*
X2729D01*
X2625Y3932D01*
X2521Y3939D01*
X2327Y3974D01*
X2160Y4030D01*
X2015Y4092D01*
X1952Y4120D01*
X1897Y4154D01*
X1848Y4182D01*
X1806Y4203D01*
X1779Y4231D01*
X1758Y4245D01*
X1744Y4252D01*
X1737Y4259D01*
X1661Y4321D01*
X1591Y4391D01*
X1480Y4529D01*
X1383Y4675D01*
X1314Y4821D01*
X1265Y4939D01*
X1244Y4994D01*
X1230Y5043D01*
X1216Y5077D01*
X1209Y5105D01*
X1203Y5126D01*
Y5133D01*
X1106Y4973D01*
X1001Y4828D01*
X890Y4703D01*
X779Y4599D01*
X668Y4508D01*
X557Y4432D01*
X446Y4377D01*
X342Y4328D01*
X245Y4286D01*
X148Y4259D01*
X64Y4238D01*
X-5Y4224D01*
X-61Y4217D01*
X-109Y4210D01*
X-137D01*
X-144D01*
X-255Y4217D01*
X-359Y4231D01*
X-463Y4252D01*
X-560Y4279D01*
X-741Y4356D01*
X-893Y4439D01*
X-963Y4481D01*
X-1025Y4522D01*
X-1081Y4564D01*
X-1122Y4599D01*
X-1157Y4626D01*
X-1185Y4647D01*
X-1199Y4661D01*
X-1206Y4668D01*
X-1310Y4772D01*
X-1400Y4883D01*
X-1476Y5001D01*
X-1546Y5126D01*
X-1601Y5244D01*
X-1650Y5362D01*
X-1684Y5480D01*
X-1719Y5598D01*
X-1740Y5702D01*
X-1761Y5799D01*
X-1768Y5889D01*
X-1782Y5966D01*
Y6028D01*
X-1788Y6077D01*
Y6118D01*
X-1782Y6313D01*
X-1761Y6493D01*
X-1726Y6660D01*
X-1691Y6799D01*
X-1671Y6861D01*
X-1650Y6917D01*
X-1636Y6965D01*
X-1622Y7007D01*
X-1608Y7041D01*
X-1594Y7062D01*
X-1587Y7076D01*
Y7083D01*
X-1504Y7236D01*
X-1414Y7368D01*
X-1324Y7479D01*
X-1233Y7569D01*
X-1157Y7645D01*
X-1088Y7701D01*
X-1046Y7729D01*
X-1039Y7743D01*
X-1032D01*
X-893Y7826D01*
X-741Y7895D01*
X-588Y7958D01*
X-435Y8006D01*
X-303Y8048D01*
X-248Y8062D01*
X-199Y8076D01*
X-158Y8083D01*
X-130Y8089D01*
X-109Y8096D01*
X-102D01*
X85Y6965D01*
X-61Y6937D01*
X-192Y6903D01*
X-296Y6861D01*
X-387Y6813D01*
X-456Y6764D01*
X-505Y6729D01*
X-539Y6701D01*
X-546Y6695D01*
X-623Y6604D01*
X-678Y6514D01*
X-713Y6424D01*
X-741Y6341D01*
X-754Y6264D01*
X-768Y6209D01*
Y6153D01*
X-761Y6035D01*
X-741Y5931D01*
X-706Y5848D01*
X-671Y5771D01*
X-636Y5709D01*
X-602Y5667D01*
X-581Y5640D01*
X-574Y5633D01*
X-498Y5570D01*
X-414Y5522D01*
X-324Y5487D01*
X-248Y5459D01*
X-172Y5445D01*
X-116Y5438D01*
X-74D01*
X-67D01*
X-61D01*
X78Y5452D01*
X196Y5480D01*
X300Y5522D01*
X391Y5570D01*
X460Y5626D01*
X509Y5667D01*
X536Y5695D01*
X550Y5709D01*
X620Y5820D01*
X675Y5938D01*
X717Y6063D01*
X738Y6188D01*
X752Y6299D01*
Y6347D01*
X758Y6389D01*
Y6472D01*
X1758Y6604D01*
X1723Y6486D01*
X1702Y6375D01*
X1681Y6285D01*
X1674Y6202D01*
X1668Y6132D01*
X1661Y6084D01*
Y6042D01*
X1674Y5910D01*
X1702Y5792D01*
X1751Y5688D01*
X1799Y5598D01*
X1848Y5529D01*
X1897Y5473D01*
X1924Y5445D01*
X1938Y5432D01*
X2049Y5348D01*
X2167Y5286D01*
X2292Y5244D01*
X2410Y5209D01*
X2514Y5195D01*
X2556Y5189D01*
X2598D01*
X2632Y5182D01*
X2653D01*
X2667D01*
X2674D01*
X2847Y5195D01*
X3000Y5223D01*
X3132Y5265D01*
X3243Y5314D01*
X3333Y5362D01*
X3396Y5404D01*
X3437Y5432D01*
X3451Y5445D01*
X3548Y5549D01*
X3618Y5661D01*
X3666Y5765D01*
X3701Y5869D01*
X3722Y5959D01*
X3729Y6028D01*
X3736Y6056D01*
Y6091D01*
X3729Y6216D01*
X3701Y6334D01*
X3659Y6438D01*
X3618Y6528D01*
X3576Y6597D01*
X3534Y6653D01*
X3507Y6681D01*
X3500Y6695D01*
X3403Y6778D01*
X3285Y6847D01*
X3174Y6903D01*
X3056Y6937D01*
X2958Y6972D01*
X2875Y6986D01*
X2840Y6993D01*
X2820Y7000D01*
X2806D01*
X2799D01*
X2944Y8187D01*
X3090Y8166D01*
D02*
G37*
G36*
X3146Y3120D02*
X3285Y3093D01*
X3416Y3051D01*
X3541Y3002D01*
X3652Y2947D01*
X3757Y2891D01*
X3854Y2836D01*
X3944Y2780D01*
X4020Y2725D01*
X4090Y2669D01*
X4145Y2621D01*
X4194Y2579D01*
X4235Y2537D01*
X4263Y2510D01*
X4277Y2496D01*
X4284Y2489D01*
X4367Y2378D01*
X4437Y2267D01*
X4499Y2149D01*
X4555Y2024D01*
X4603Y1906D01*
X4638Y1781D01*
X4693Y1552D01*
X4714Y1448D01*
X4728Y1351D01*
X4742Y1261D01*
X4749Y1184D01*
X4756Y1122D01*
Y1038D01*
X4749Y837D01*
X4721Y643D01*
X4679Y462D01*
X4624Y296D01*
X4562Y143D01*
X4485Y4D01*
X4409Y-128D01*
X4332Y-246D01*
X4256Y-350D01*
X4180Y-440D01*
X4104Y-516D01*
X4041Y-579D01*
X3985Y-634D01*
X3944Y-669D01*
X3916Y-690D01*
X3909Y-697D01*
X3791Y-780D01*
X3666Y-849D01*
X3548Y-912D01*
X3423Y-967D01*
X3305Y-1009D01*
X3187Y-1051D01*
X3076Y-1078D01*
X2965Y-1106D01*
X2868Y-1120D01*
X2778Y-1134D01*
X2695Y-1148D01*
X2625Y-1155D01*
X2570Y-1161D01*
X2528D01*
X2500D01*
X2493D01*
X2320Y-1155D01*
X2153Y-1134D01*
X2001Y-1106D01*
X1848Y-1071D01*
X1716Y-1030D01*
X1584Y-981D01*
X1466Y-926D01*
X1362Y-877D01*
X1265Y-821D01*
X1182Y-766D01*
X1112Y-717D01*
X1057Y-676D01*
X1008Y-641D01*
X974Y-613D01*
X953Y-593D01*
X946Y-586D01*
X842Y-475D01*
X752Y-363D01*
X668Y-246D01*
X599Y-128D01*
X543Y-10D01*
X495Y102D01*
X453Y213D01*
X425Y324D01*
X398Y421D01*
X384Y511D01*
X370Y594D01*
X356Y664D01*
Y726D01*
X349Y768D01*
Y802D01*
X356Y962D01*
X384Y1115D01*
X411Y1254D01*
X453Y1385D01*
X488Y1489D01*
X509Y1531D01*
X522Y1573D01*
X536Y1601D01*
X550Y1621D01*
X557Y1635D01*
Y1642D01*
X-532Y1448D01*
Y-877D01*
X-1684D01*
Y2371D01*
X1654Y3002D01*
X1792Y2010D01*
X1709Y1934D01*
X1640Y1850D01*
X1577Y1767D01*
X1522Y1684D01*
X1480Y1608D01*
X1439Y1524D01*
X1383Y1378D01*
X1355Y1247D01*
X1341Y1198D01*
X1335Y1149D01*
X1328Y1108D01*
Y983D01*
X1341Y907D01*
X1376Y775D01*
X1425Y657D01*
X1473Y560D01*
X1529Y476D01*
X1577Y421D01*
X1612Y386D01*
X1619Y372D01*
X1626D01*
X1751Y282D01*
X1890Y213D01*
X2035Y164D01*
X2181Y136D01*
X2313Y115D01*
X2369Y108D01*
X2417D01*
X2459Y102D01*
X2486D01*
X2507D01*
X2514D01*
X2625D01*
X2736Y115D01*
X2833Y129D01*
X2931Y143D01*
X3014Y164D01*
X3090Y185D01*
X3160Y213D01*
X3222Y233D01*
X3278Y261D01*
X3326Y289D01*
X3368Y310D01*
X3403Y331D01*
X3423Y344D01*
X3444Y358D01*
X3451Y372D01*
X3458D01*
X3514Y421D01*
X3562Y476D01*
X3639Y587D01*
X3694Y691D01*
X3729Y795D01*
X3757Y886D01*
X3763Y962D01*
X3770Y990D01*
Y1025D01*
X3757Y1149D01*
X3729Y1261D01*
X3694Y1365D01*
X3646Y1448D01*
X3604Y1524D01*
X3562Y1573D01*
X3534Y1608D01*
X3528Y1621D01*
X3430Y1705D01*
X3319Y1774D01*
X3215Y1830D01*
X3104Y1871D01*
X3014Y1899D01*
X2938Y1913D01*
X2910Y1920D01*
X2889Y1927D01*
X2875D01*
X2868D01*
X3000Y3148D01*
X3146Y3120D01*
D02*
G37*
G36*
X-546Y-4604D02*
X-338Y-4444D01*
X-130Y-4298D01*
X85Y-4153D01*
X300Y-4021D01*
X509Y-3896D01*
X717Y-3785D01*
X911Y-3681D01*
X1099Y-3584D01*
X1272Y-3500D01*
X1432Y-3424D01*
X1577Y-3362D01*
X1695Y-3313D01*
X1792Y-3271D01*
X1869Y-3237D01*
X1897Y-3230D01*
X1917Y-3223D01*
X1924Y-3216D01*
X1931D01*
X2188Y-3126D01*
X2445Y-3042D01*
X2695Y-2973D01*
X2938Y-2917D01*
X3174Y-2862D01*
X3396Y-2820D01*
X3604Y-2785D01*
X3805Y-2751D01*
X3985Y-2730D01*
X4145Y-2709D01*
X4291Y-2695D01*
X4409Y-2688D01*
X4506Y-2681D01*
X4575Y-2675D01*
X4603D01*
X4624D01*
X4631D01*
X4638D01*
Y-3861D01*
X4312Y-3868D01*
X3979Y-3903D01*
X3659Y-3945D01*
X3507Y-3965D01*
X3361Y-3993D01*
X3222Y-4021D01*
X3097Y-4042D01*
X2993Y-4069D01*
X2896Y-4090D01*
X2820Y-4104D01*
X2764Y-4118D01*
X2729Y-4132D01*
X2716D01*
X2320Y-4250D01*
X2126Y-4312D01*
X1938Y-4382D01*
X1765Y-4451D01*
X1591Y-4514D01*
X1439Y-4583D01*
X1286Y-4645D01*
X1154Y-4708D01*
X1036Y-4770D01*
X932Y-4819D01*
X842Y-4861D01*
X772Y-4902D01*
X717Y-4930D01*
X689Y-4944D01*
X675Y-4951D01*
X502Y-5055D01*
X335Y-5152D01*
X182Y-5249D01*
X44Y-5346D01*
X-88Y-5437D01*
X-213Y-5527D01*
X-324Y-5610D01*
X-421Y-5686D01*
X-505Y-5756D01*
X-581Y-5818D01*
X-650Y-5874D01*
X-699Y-5922D01*
X-741Y-5964D01*
X-775Y-5992D01*
X-789Y-6006D01*
X-796Y-6013D01*
X-1684D01*
Y-1814D01*
X-546D01*
Y-4604D01*
D02*
G37*
G36*
X2757Y-9233D02*
X2944Y-9274D01*
X3111Y-9323D01*
X3271Y-9379D01*
X3416Y-9441D01*
X3555Y-9503D01*
X3673Y-9573D01*
X3784Y-9642D01*
X3881Y-9705D01*
X3965Y-9767D01*
X4034Y-9830D01*
X4097Y-9878D01*
X4138Y-9920D01*
X4173Y-9955D01*
X4194Y-9975D01*
X4201Y-9982D01*
X4298Y-10114D01*
X4381Y-10253D01*
X4457Y-10399D01*
X4520Y-10551D01*
X4575Y-10704D01*
X4617Y-10857D01*
X4659Y-11009D01*
X4687Y-11162D01*
X4707Y-11301D01*
X4728Y-11433D01*
X4742Y-11551D01*
X4749Y-11648D01*
Y-11731D01*
X4756Y-11794D01*
Y-12002D01*
X4749Y-12148D01*
X4735Y-12293D01*
X4721Y-12418D01*
X4700Y-12543D01*
X4687Y-12661D01*
X4666Y-12765D01*
X4638Y-12862D01*
X4617Y-12946D01*
X4596Y-13022D01*
X4582Y-13091D01*
X4562Y-13147D01*
X4548Y-13189D01*
X4534Y-13216D01*
X4527Y-13237D01*
Y-13244D01*
X4430Y-13445D01*
X4319Y-13619D01*
X4194Y-13765D01*
X4083Y-13890D01*
X3979Y-13987D01*
X3930Y-14021D01*
X3888Y-14056D01*
X3861Y-14077D01*
X3833Y-14098D01*
X3819Y-14112D01*
X3812D01*
X3722Y-14167D01*
X3625Y-14216D01*
X3444Y-14292D01*
X3271Y-14347D01*
X3111Y-14382D01*
X3042Y-14396D01*
X2979Y-14410D01*
X2917Y-14417D01*
X2868D01*
X2833Y-14424D01*
X2799D01*
X2785D01*
X2778D01*
X2563Y-14410D01*
X2362Y-14382D01*
X2188Y-14341D01*
X2112Y-14320D01*
X2042Y-14299D01*
X1980Y-14271D01*
X1924Y-14250D01*
X1876Y-14230D01*
X1834Y-14209D01*
X1799Y-14188D01*
X1779Y-14181D01*
X1765Y-14167D01*
X1758D01*
X1612Y-14063D01*
X1480Y-13945D01*
X1369Y-13827D01*
X1272Y-13716D01*
X1203Y-13612D01*
X1147Y-13529D01*
X1133Y-13494D01*
X1119Y-13473D01*
X1106Y-13459D01*
Y-13452D01*
X1064Y-13362D01*
X1015Y-13265D01*
X974Y-13154D01*
X932Y-13043D01*
X856Y-12814D01*
X786Y-12585D01*
X758Y-12481D01*
X731Y-12377D01*
X703Y-12293D01*
X682Y-12210D01*
X668Y-12148D01*
X654Y-12099D01*
X647Y-12071D01*
Y-12057D01*
X606Y-11891D01*
X564Y-11738D01*
X522Y-11599D01*
X481Y-11474D01*
X446Y-11363D01*
X411Y-11266D01*
X377Y-11183D01*
X349Y-11113D01*
X321Y-11051D01*
X293Y-10995D01*
X273Y-10954D01*
X252Y-10926D01*
X238Y-10898D01*
X224Y-10885D01*
X217Y-10871D01*
X155Y-10808D01*
X92Y-10760D01*
X23Y-10732D01*
X-40Y-10704D01*
X-88Y-10690D01*
X-137Y-10683D01*
X-165D01*
X-172D01*
X-262Y-10690D01*
X-338Y-10718D01*
X-408Y-10746D01*
X-463Y-10787D01*
X-505Y-10822D01*
X-539Y-10857D01*
X-560Y-10877D01*
X-567Y-10885D01*
X-643Y-11016D01*
X-706Y-11155D01*
X-747Y-11308D01*
X-775Y-11447D01*
X-789Y-11579D01*
X-796Y-11634D01*
X-803Y-11683D01*
Y-11773D01*
X-796Y-11967D01*
X-768Y-12134D01*
X-734Y-12273D01*
X-692Y-12391D01*
X-650Y-12481D01*
X-616Y-12543D01*
X-588Y-12578D01*
X-581Y-12592D01*
X-491Y-12689D01*
X-380Y-12765D01*
X-262Y-12828D01*
X-151Y-12876D01*
X-47Y-12911D01*
X2Y-12925D01*
X44Y-12939D01*
X71Y-12946D01*
X99D01*
X113Y-12953D01*
X120D01*
X71Y-14243D01*
X-88Y-14230D01*
X-241Y-14209D01*
X-387Y-14174D01*
X-519Y-14126D01*
X-643Y-14077D01*
X-761Y-14021D01*
X-865Y-13966D01*
X-963Y-13910D01*
X-1046Y-13848D01*
X-1122Y-13792D01*
X-1192Y-13744D01*
X-1240Y-13695D01*
X-1282Y-13654D01*
X-1317Y-13626D01*
X-1331Y-13605D01*
X-1337Y-13598D01*
X-1435Y-13480D01*
X-1511Y-13348D01*
X-1587Y-13202D01*
X-1650Y-13057D01*
X-1698Y-12911D01*
X-1740Y-12758D01*
X-1775Y-12606D01*
X-1802Y-12467D01*
X-1830Y-12328D01*
X-1844Y-12196D01*
X-1858Y-12085D01*
X-1865Y-11981D01*
X-1872Y-11905D01*
Y-11787D01*
X-1865Y-11516D01*
X-1851Y-11398D01*
X-1837Y-11273D01*
X-1816Y-11162D01*
X-1802Y-11058D01*
X-1782Y-10968D01*
X-1761Y-10877D01*
X-1733Y-10794D01*
X-1712Y-10725D01*
X-1698Y-10669D01*
X-1678Y-10614D01*
X-1664Y-10579D01*
X-1650Y-10544D01*
X-1643Y-10531D01*
Y-10524D01*
X-1553Y-10343D01*
X-1448Y-10177D01*
X-1344Y-10045D01*
X-1240Y-9927D01*
X-1143Y-9843D01*
X-1067Y-9774D01*
X-1039Y-9753D01*
X-1018Y-9739D01*
X-1004Y-9725D01*
X-997D01*
X-838Y-9635D01*
X-678Y-9566D01*
X-519Y-9517D01*
X-380Y-9483D01*
X-262Y-9462D01*
X-206Y-9455D01*
X-165D01*
X-130Y-9448D01*
X-102D01*
X-88D01*
X-81D01*
X58Y-9455D01*
X189Y-9476D01*
X321Y-9503D01*
X439Y-9538D01*
X550Y-9587D01*
X661Y-9635D01*
X758Y-9691D01*
X849Y-9746D01*
X932Y-9795D01*
X1001Y-9850D01*
X1064Y-9899D01*
X1112Y-9948D01*
X1154Y-9982D01*
X1182Y-10010D01*
X1203Y-10031D01*
X1209Y-10038D01*
X1279Y-10121D01*
X1341Y-10218D01*
X1404Y-10329D01*
X1466Y-10440D01*
X1570Y-10683D01*
X1668Y-10926D01*
X1702Y-11037D01*
X1737Y-11141D01*
X1772Y-11238D01*
X1792Y-11329D01*
X1813Y-11398D01*
X1827Y-11447D01*
X1841Y-11481D01*
Y-11495D01*
X1876Y-11641D01*
X1911Y-11773D01*
X1938Y-11891D01*
X1966Y-11995D01*
X1994Y-12092D01*
X2015Y-12175D01*
X2035Y-12252D01*
X2056Y-12314D01*
X2070Y-12370D01*
X2084Y-12411D01*
X2098Y-12453D01*
X2105Y-12481D01*
X2112Y-12502D01*
Y-12515D01*
X2119Y-12529D01*
X2167Y-12647D01*
X2209Y-12744D01*
X2258Y-12821D01*
X2299Y-12890D01*
X2341Y-12932D01*
X2369Y-12967D01*
X2389Y-12987D01*
X2396Y-12994D01*
X2459Y-13043D01*
X2521Y-13078D01*
X2591Y-13098D01*
X2653Y-13119D01*
X2702Y-13126D01*
X2743Y-13133D01*
X2778D01*
X2785D01*
X2847D01*
X2910Y-13119D01*
X3028Y-13084D01*
X3139Y-13029D01*
X3229Y-12973D01*
X3299Y-12918D01*
X3354Y-12862D01*
X3389Y-12828D01*
X3403Y-12821D01*
Y-12814D01*
X3451Y-12751D01*
X3493Y-12682D01*
X3555Y-12529D01*
X3604Y-12370D01*
X3632Y-12217D01*
X3652Y-12078D01*
X3659Y-12023D01*
Y-11967D01*
X3666Y-11925D01*
Y-11863D01*
X3652Y-11655D01*
X3618Y-11467D01*
X3576Y-11308D01*
X3521Y-11169D01*
X3493Y-11113D01*
X3465Y-11065D01*
X3444Y-11016D01*
X3423Y-10982D01*
X3403Y-10954D01*
X3389Y-10933D01*
X3375Y-10926D01*
Y-10919D01*
X3312Y-10857D01*
X3250Y-10801D01*
X3104Y-10704D01*
X2944Y-10621D01*
X2792Y-10558D01*
X2653Y-10517D01*
X2598Y-10496D01*
X2542Y-10482D01*
X2500Y-10475D01*
X2466Y-10468D01*
X2445Y-10461D01*
X2438D01*
X2563Y-9205D01*
X2757Y-9233D01*
D02*
G37*
G36*
X3486Y-15187D02*
X3590Y-15201D01*
X3687Y-15215D01*
X3777Y-15243D01*
X3951Y-15312D01*
X4020Y-15347D01*
X4090Y-15389D01*
X4152Y-15423D01*
X4208Y-15458D01*
X4249Y-15493D01*
X4291Y-15527D01*
X4319Y-15555D01*
X4340Y-15569D01*
X4353Y-15583D01*
X4360Y-15590D01*
X4430Y-15673D01*
X4485Y-15756D01*
X4534Y-15847D01*
X4582Y-15944D01*
X4652Y-16131D01*
X4693Y-16312D01*
X4707Y-16395D01*
X4721Y-16471D01*
X4728Y-16541D01*
X4735Y-16603D01*
X4742Y-16652D01*
Y-16721D01*
X4735Y-16874D01*
X4721Y-17012D01*
X4693Y-17144D01*
X4666Y-17255D01*
X4638Y-17353D01*
X4610Y-17422D01*
X4603Y-17450D01*
X4596Y-17470D01*
X4589Y-17478D01*
Y-17484D01*
X4527Y-17616D01*
X4451Y-17741D01*
X4374Y-17859D01*
X4305Y-17956D01*
X4235Y-18040D01*
X4180Y-18102D01*
X4145Y-18144D01*
X4131Y-18158D01*
X4145Y-18165D01*
X4166Y-18171D01*
X4215Y-18185D01*
X4256Y-18192D01*
X4270Y-18199D01*
X4277D01*
X4360Y-18227D01*
X4437Y-18248D01*
X4499Y-18276D01*
X4548Y-18290D01*
X4589Y-18303D01*
X4617Y-18317D01*
X4631Y-18324D01*
X4638D01*
Y-19539D01*
X4520Y-19483D01*
X4402Y-19435D01*
X4298Y-19393D01*
X4208Y-19365D01*
X4131Y-19344D01*
X4069Y-19331D01*
X4034Y-19317D01*
X4020D01*
X3965Y-19310D01*
X3895Y-19296D01*
X3757Y-19282D01*
X3604Y-19275D01*
X3458Y-19268D01*
X3326Y-19261D01*
X3271D01*
X3215D01*
X3174D01*
X3146D01*
X3125D01*
X3118D01*
X1681Y-19282D01*
X1536D01*
X1404Y-19275D01*
X1286Y-19268D01*
X1175Y-19254D01*
X1071Y-19240D01*
X981Y-19226D01*
X904Y-19212D01*
X835Y-19199D01*
X772Y-19185D01*
X724Y-19171D01*
X675Y-19157D01*
X641Y-19143D01*
X620Y-19129D01*
X599Y-19122D01*
X585Y-19115D01*
X481Y-19046D01*
X384Y-18956D01*
X300Y-18866D01*
X224Y-18768D01*
X169Y-18685D01*
X127Y-18609D01*
X113Y-18588D01*
X99Y-18567D01*
X92Y-18553D01*
Y-18546D01*
X58Y-18463D01*
X23Y-18380D01*
X-26Y-18185D01*
X-61Y-17984D01*
X-81Y-17783D01*
X-95Y-17686D01*
X-102Y-17602D01*
Y-17519D01*
X-109Y-17457D01*
Y-17151D01*
X-95Y-16999D01*
X-81Y-16853D01*
X-61Y-16721D01*
X-33Y-16596D01*
X-5Y-16485D01*
X23Y-16388D01*
X51Y-16291D01*
X85Y-16214D01*
X113Y-16145D01*
X141Y-16082D01*
X169Y-16034D01*
X189Y-15999D01*
X203Y-15971D01*
X210Y-15958D01*
X217Y-15951D01*
X280Y-15867D01*
X356Y-15791D01*
X509Y-15659D01*
X675Y-15548D01*
X842Y-15458D01*
X988Y-15389D01*
X1050Y-15361D01*
X1106Y-15340D01*
X1154Y-15326D01*
X1189Y-15312D01*
X1209Y-15305D01*
X1216D01*
X1418Y-16409D01*
X1307Y-16450D01*
X1209Y-16499D01*
X1126Y-16547D01*
X1064Y-16596D01*
X1015Y-16638D01*
X988Y-16672D01*
X967Y-16693D01*
X960Y-16700D01*
X918Y-16777D01*
X883Y-16860D01*
X863Y-16950D01*
X842Y-17033D01*
X835Y-17103D01*
X828Y-17165D01*
Y-17311D01*
X835Y-17394D01*
X842Y-17464D01*
X849Y-17533D01*
X876Y-17651D01*
X904Y-17741D01*
X932Y-17804D01*
X960Y-17852D01*
X974Y-17880D01*
X981Y-17887D01*
X1043Y-17949D01*
X1126Y-17991D01*
X1209Y-18026D01*
X1293Y-18047D01*
X1369Y-18060D01*
X1432Y-18067D01*
X1480D01*
X1487D01*
X1494D01*
X1612D01*
X1640Y-17998D01*
X1668Y-17922D01*
X1695Y-17831D01*
X1723Y-17741D01*
X1772Y-17540D01*
X1820Y-17346D01*
X1841Y-17248D01*
X1862Y-17158D01*
X1876Y-17075D01*
X1890Y-17006D01*
X1904Y-16950D01*
X1911Y-16902D01*
X1917Y-16874D01*
Y-16867D01*
X1938Y-16749D01*
X1966Y-16645D01*
X1994Y-16541D01*
X2015Y-16443D01*
X2042Y-16360D01*
X2063Y-16277D01*
X2091Y-16201D01*
X2112Y-16138D01*
X2133Y-16082D01*
X2146Y-16027D01*
X2167Y-15985D01*
X2181Y-15951D01*
X2195Y-15923D01*
X2202Y-15902D01*
X2209Y-15895D01*
Y-15888D01*
X2271Y-15770D01*
X2348Y-15666D01*
X2424Y-15576D01*
X2500Y-15507D01*
X2570Y-15444D01*
X2625Y-15402D01*
X2660Y-15375D01*
X2667Y-15368D01*
X2674D01*
X2792Y-15305D01*
X2910Y-15257D01*
X3028Y-15229D01*
X3139Y-15201D01*
X3236Y-15187D01*
X3305Y-15180D01*
X3333D01*
X3354D01*
X3368D01*
X3375D01*
X3486Y-15187D01*
D02*
G37*
G36*
X4638Y-21746D02*
Y-22849D01*
X-5Y-24695D01*
Y-23432D01*
X2369Y-22551D01*
X2514Y-22502D01*
X2577Y-22481D01*
X2639Y-22460D01*
X2688Y-22440D01*
X2729Y-22433D01*
X2757Y-22419D01*
X2764D01*
X2806Y-22405D01*
X2861Y-22391D01*
X2931Y-22370D01*
X2993Y-22349D01*
X3056Y-22329D01*
X3111Y-22308D01*
X3146Y-22301D01*
X3153Y-22294D01*
X3160D01*
X2369Y-22044D01*
X-5Y-21170D01*
Y-19879D01*
X4638Y-21746D01*
D02*
G37*
G36*
X2528Y-25104D02*
X2702Y-25118D01*
X2861Y-25139D01*
X3014Y-25167D01*
X3153Y-25202D01*
X3285Y-25243D01*
X3410Y-25285D01*
X3521Y-25327D01*
X3618Y-25368D01*
X3708Y-25410D01*
X3777Y-25451D01*
X3840Y-25486D01*
X3895Y-25514D01*
X3930Y-25535D01*
X3951Y-25549D01*
X3958Y-25556D01*
X4097Y-25674D01*
X4215Y-25798D01*
X4319Y-25937D01*
X4409Y-26076D01*
X4485Y-26229D01*
X4548Y-26375D01*
X4603Y-26520D01*
X4645Y-26666D01*
X4679Y-26805D01*
X4700Y-26930D01*
X4721Y-27048D01*
X4728Y-27145D01*
X4735Y-27228D01*
X4742Y-27291D01*
Y-27346D01*
X4735Y-27485D01*
X4728Y-27617D01*
X4707Y-27749D01*
X4687Y-27867D01*
X4659Y-27978D01*
X4631Y-28082D01*
X4603Y-28179D01*
X4569Y-28269D01*
X4534Y-28346D01*
X4506Y-28415D01*
X4478Y-28477D01*
X4451Y-28526D01*
X4430Y-28568D01*
X4409Y-28595D01*
X4402Y-28609D01*
X4395Y-28616D01*
X4326Y-28706D01*
X4249Y-28797D01*
X4083Y-28949D01*
X3916Y-29081D01*
X3750Y-29185D01*
X3673Y-29227D01*
X3597Y-29262D01*
X3534Y-29296D01*
X3479Y-29324D01*
X3430Y-29338D01*
X3396Y-29352D01*
X3375Y-29366D01*
X3368D01*
X3160Y-28144D01*
X3285Y-28103D01*
X3389Y-28054D01*
X3479Y-28005D01*
X3548Y-27950D01*
X3604Y-27908D01*
X3646Y-27874D01*
X3666Y-27846D01*
X3673Y-27839D01*
X3722Y-27763D01*
X3763Y-27679D01*
X3791Y-27603D01*
X3805Y-27527D01*
X3819Y-27457D01*
X3826Y-27409D01*
Y-27360D01*
X3819Y-27284D01*
X3812Y-27207D01*
X3777Y-27069D01*
X3729Y-26944D01*
X3673Y-26840D01*
X3625Y-26756D01*
X3576Y-26694D01*
X3541Y-26659D01*
X3528Y-26652D01*
Y-26645D01*
X3403Y-26548D01*
X3264Y-26479D01*
X3118Y-26430D01*
X2979Y-26395D01*
X2861Y-26375D01*
X2806Y-26368D01*
X2757Y-26361D01*
X2723Y-26354D01*
X2688D01*
X2674D01*
X2667D01*
Y-29428D01*
X2410D01*
X2174Y-29407D01*
X1952Y-29380D01*
X1744Y-29345D01*
X1557Y-29303D01*
X1390Y-29255D01*
X1230Y-29206D01*
X1092Y-29151D01*
X974Y-29095D01*
X869Y-29039D01*
X779Y-28991D01*
X703Y-28942D01*
X647Y-28908D01*
X613Y-28880D01*
X585Y-28859D01*
X578Y-28852D01*
X460Y-28734D01*
X349Y-28609D01*
X259Y-28477D01*
X182Y-28346D01*
X113Y-28207D01*
X58Y-28075D01*
X16Y-27943D01*
X-26Y-27811D01*
X-53Y-27693D01*
X-74Y-27582D01*
X-88Y-27478D01*
X-95Y-27395D01*
X-102Y-27318D01*
X-109Y-27270D01*
Y-27221D01*
X-102Y-27055D01*
X-81Y-26888D01*
X-47Y-26735D01*
X-5Y-26597D01*
X44Y-26458D01*
X99Y-26333D01*
X162Y-26215D01*
X217Y-26111D01*
X280Y-26021D01*
X342Y-25937D01*
X398Y-25861D01*
X446Y-25806D01*
X488Y-25757D01*
X522Y-25722D01*
X543Y-25701D01*
X550Y-25694D01*
X675Y-25590D01*
X814Y-25500D01*
X960Y-25417D01*
X1106Y-25347D01*
X1258Y-25292D01*
X1411Y-25243D01*
X1557Y-25202D01*
X1695Y-25174D01*
X1834Y-25146D01*
X1952Y-25132D01*
X2070Y-25118D01*
X2167Y-25104D01*
X2244D01*
X2306Y-25098D01*
X2341D01*
X2355D01*
X2528Y-25104D01*
D02*
G37*
G36*
X4638Y-31607D02*
X3208D01*
X2993D01*
X2799Y-31614D01*
X2625D01*
X2466Y-31621D01*
X2320Y-31628D01*
X2195Y-31635D01*
X2084Y-31649D01*
X1987Y-31656D01*
X1904Y-31663D01*
X1834Y-31677D01*
X1772Y-31684D01*
X1730Y-31691D01*
X1695Y-31697D01*
X1674D01*
X1661Y-31705D01*
X1654D01*
X1522Y-31746D01*
X1418Y-31795D01*
X1328Y-31843D01*
X1258Y-31885D01*
X1203Y-31927D01*
X1168Y-31961D01*
X1147Y-31982D01*
X1140Y-31989D01*
X1092Y-32058D01*
X1057Y-32135D01*
X1029Y-32204D01*
X1015Y-32274D01*
X1001Y-32336D01*
X994Y-32385D01*
Y-32426D01*
X1001Y-32530D01*
X1022Y-32627D01*
X1057Y-32725D01*
X1092Y-32815D01*
X1133Y-32891D01*
X1161Y-32947D01*
X1189Y-32988D01*
X1196Y-33002D01*
X127Y-33384D01*
X51Y-33238D01*
X-12Y-33092D01*
X-53Y-32954D01*
X-81Y-32829D01*
X-95Y-32725D01*
X-102Y-32683D01*
X-109Y-32641D01*
Y-32572D01*
X-102Y-32461D01*
X-88Y-32364D01*
X-61Y-32274D01*
X-33Y-32190D01*
X-5Y-32128D01*
X23Y-32079D01*
X37Y-32052D01*
X44Y-32038D01*
X71Y-31996D01*
X113Y-31947D01*
X203Y-31857D01*
X300Y-31774D01*
X404Y-31691D01*
X502Y-31621D01*
X585Y-31566D01*
X620Y-31545D01*
X641Y-31531D01*
X654Y-31524D01*
X661Y-31517D01*
X-5D01*
Y-30379D01*
X4638D01*
Y-31607D01*
D02*
G37*
%LPC*%
G36*
X14978Y16637D02*
X14902D01*
X14846D01*
X14812D01*
X14798D01*
X14597D01*
X14409Y16631D01*
X14229Y16624D01*
X14076Y16617D01*
X13930Y16610D01*
X13799Y16596D01*
X13681Y16589D01*
X13577Y16575D01*
X13486Y16561D01*
X13403Y16554D01*
X13340Y16540D01*
X13285Y16533D01*
X13243Y16526D01*
X13216Y16520D01*
X13202Y16512D01*
X13195D01*
X13070Y16471D01*
X12959Y16429D01*
X12876Y16381D01*
X12806Y16339D01*
X12751Y16304D01*
X12716Y16270D01*
X12695Y16249D01*
X12688Y16242D01*
X12640Y16172D01*
X12605Y16110D01*
X12577Y16041D01*
X12563Y15978D01*
X12549Y15923D01*
X12542Y15881D01*
Y15846D01*
X12549Y15763D01*
X12563Y15694D01*
X12591Y15624D01*
X12612Y15562D01*
X12640Y15520D01*
X12667Y15479D01*
X12681Y15458D01*
X12688Y15451D01*
X12751Y15388D01*
X12834Y15333D01*
X12924Y15284D01*
X13021Y15243D01*
X13112Y15208D01*
X13181Y15187D01*
X13209Y15180D01*
X13229Y15173D01*
X13243Y15166D01*
X13250D01*
X13340Y15145D01*
X13438Y15124D01*
X13549Y15111D01*
X13674Y15097D01*
X13924Y15076D01*
X14180Y15062D01*
X14305Y15055D01*
X14416D01*
X14527Y15048D01*
X14617D01*
X14694D01*
X14749D01*
X14784D01*
X14798D01*
X14999D01*
X15193Y15055D01*
X15367Y15062D01*
X15527Y15069D01*
X15672Y15076D01*
X15804Y15090D01*
X15922Y15104D01*
X16026Y15111D01*
X16116Y15124D01*
X16193Y15138D01*
X16255Y15152D01*
X16311Y15159D01*
X16353Y15166D01*
X16380Y15173D01*
X16394Y15180D01*
X16401D01*
X16526Y15222D01*
X16637Y15263D01*
X16720Y15305D01*
X16790Y15354D01*
X16845Y15388D01*
X16880Y15423D01*
X16901Y15444D01*
X16908Y15451D01*
X16956Y15520D01*
X16991Y15583D01*
X17012Y15652D01*
X17026Y15714D01*
X17040Y15770D01*
X17047Y15812D01*
Y15846D01*
X17040Y15930D01*
X17026Y15999D01*
X17005Y16068D01*
X16977Y16124D01*
X16949Y16172D01*
X16928Y16214D01*
X16915Y16235D01*
X16908Y16242D01*
X16845Y16304D01*
X16762Y16360D01*
X16672Y16408D01*
X16575Y16450D01*
X16491Y16485D01*
X16422Y16506D01*
X16394Y16512D01*
X16373Y16520D01*
X16359Y16526D01*
X16353D01*
X16262Y16547D01*
X16165Y16561D01*
X16054Y16575D01*
X15929Y16589D01*
X15672Y16610D01*
X15416Y16624D01*
X15291Y16631D01*
X15180D01*
X15076D01*
X14978Y16637D01*
D02*
G37*
G36*
Y6685D02*
X14902D01*
X14846D01*
X14812D01*
X14798D01*
X14597D01*
X14409Y6679D01*
X14229Y6672D01*
X14076Y6665D01*
X13930Y6658D01*
X13799Y6644D01*
X13681Y6637D01*
X13577Y6623D01*
X13486Y6609D01*
X13403Y6602D01*
X13340Y6588D01*
X13285Y6581D01*
X13243Y6575D01*
X13216Y6567D01*
X13202Y6561D01*
X13195D01*
X13070Y6519D01*
X12959Y6477D01*
X12876Y6429D01*
X12806Y6387D01*
X12751Y6352D01*
X12716Y6318D01*
X12695Y6297D01*
X12688Y6290D01*
X12640Y6221D01*
X12605Y6158D01*
X12577Y6089D01*
X12563Y6026D01*
X12549Y5971D01*
X12542Y5929D01*
Y5894D01*
X12549Y5811D01*
X12563Y5742D01*
X12591Y5672D01*
X12612Y5610D01*
X12640Y5568D01*
X12667Y5526D01*
X12681Y5506D01*
X12688Y5499D01*
X12751Y5436D01*
X12834Y5381D01*
X12924Y5332D01*
X13021Y5291D01*
X13112Y5256D01*
X13181Y5235D01*
X13209Y5228D01*
X13229Y5221D01*
X13243Y5214D01*
X13250D01*
X13340Y5193D01*
X13438Y5173D01*
X13549Y5159D01*
X13674Y5145D01*
X13924Y5124D01*
X14180Y5110D01*
X14305Y5103D01*
X14416D01*
X14527Y5096D01*
X14617D01*
X14694D01*
X14749D01*
X14784D01*
X14798D01*
X14999D01*
X15193Y5103D01*
X15367Y5110D01*
X15527Y5117D01*
X15672Y5124D01*
X15804Y5138D01*
X15922Y5152D01*
X16026Y5159D01*
X16116Y5173D01*
X16193Y5186D01*
X16255Y5200D01*
X16311Y5207D01*
X16353Y5214D01*
X16380Y5221D01*
X16394Y5228D01*
X16401D01*
X16526Y5270D01*
X16637Y5311D01*
X16720Y5353D01*
X16790Y5402D01*
X16845Y5436D01*
X16880Y5471D01*
X16901Y5492D01*
X16908Y5499D01*
X16956Y5568D01*
X16991Y5631D01*
X17012Y5700D01*
X17026Y5762D01*
X17040Y5818D01*
X17047Y5860D01*
Y5894D01*
X17040Y5978D01*
X17026Y6047D01*
X17005Y6116D01*
X16977Y6172D01*
X16949Y6221D01*
X16928Y6262D01*
X16915Y6283D01*
X16908Y6290D01*
X16845Y6352D01*
X16762Y6408D01*
X16672Y6457D01*
X16575Y6498D01*
X16491Y6533D01*
X16422Y6554D01*
X16394Y6561D01*
X16373Y6567D01*
X16359Y6575D01*
X16353D01*
X16262Y6595D01*
X16165Y6609D01*
X16054Y6623D01*
X15929Y6637D01*
X15672Y6658D01*
X15416Y6672D01*
X15291Y6679D01*
X15180D01*
X15076D01*
X14978Y6685D01*
D02*
G37*
G36*
Y-1268D02*
X14902D01*
X14846D01*
X14812D01*
X14798D01*
X14597D01*
X14409Y-1275D01*
X14229Y-1282D01*
X14076Y-1289D01*
X13930Y-1295D01*
X13799Y-1309D01*
X13681Y-1316D01*
X13577Y-1330D01*
X13486Y-1344D01*
X13403Y-1351D01*
X13340Y-1365D01*
X13285Y-1372D01*
X13243Y-1379D01*
X13216Y-1386D01*
X13202Y-1393D01*
X13195D01*
X13070Y-1434D01*
X12959Y-1476D01*
X12876Y-1524D01*
X12806Y-1566D01*
X12751Y-1601D01*
X12716Y-1636D01*
X12695Y-1656D01*
X12688Y-1663D01*
X12640Y-1733D01*
X12605Y-1795D01*
X12577Y-1865D01*
X12563Y-1927D01*
X12549Y-1983D01*
X12542Y-2024D01*
Y-2059D01*
X12549Y-2142D01*
X12563Y-2212D01*
X12591Y-2281D01*
X12612Y-2343D01*
X12640Y-2385D01*
X12667Y-2427D01*
X12681Y-2448D01*
X12688Y-2455D01*
X12751Y-2517D01*
X12834Y-2572D01*
X12924Y-2621D01*
X13021Y-2663D01*
X13112Y-2697D01*
X13181Y-2718D01*
X13209Y-2725D01*
X13229Y-2732D01*
X13243Y-2739D01*
X13250D01*
X13340Y-2760D01*
X13438Y-2781D01*
X13549Y-2795D01*
X13674Y-2808D01*
X13924Y-2829D01*
X14180Y-2843D01*
X14305Y-2850D01*
X14416D01*
X14527Y-2857D01*
X14617D01*
X14694D01*
X14749D01*
X14784D01*
X14798D01*
X14999D01*
X15193Y-2850D01*
X15367Y-2843D01*
X15527Y-2836D01*
X15672Y-2829D01*
X15804Y-2815D01*
X15922Y-2802D01*
X16026Y-2795D01*
X16116Y-2781D01*
X16193Y-2767D01*
X16255Y-2753D01*
X16311Y-2746D01*
X16353Y-2739D01*
X16380Y-2732D01*
X16394Y-2725D01*
X16401D01*
X16526Y-2684D01*
X16637Y-2642D01*
X16720Y-2600D01*
X16790Y-2552D01*
X16845Y-2517D01*
X16880Y-2482D01*
X16901Y-2461D01*
X16908Y-2455D01*
X16956Y-2385D01*
X16991Y-2323D01*
X17012Y-2253D01*
X17026Y-2191D01*
X17040Y-2135D01*
X17047Y-2094D01*
Y-2059D01*
X17040Y-1976D01*
X17026Y-1906D01*
X17005Y-1837D01*
X16977Y-1781D01*
X16949Y-1733D01*
X16928Y-1691D01*
X16915Y-1670D01*
X16908Y-1663D01*
X16845Y-1601D01*
X16762Y-1545D01*
X16672Y-1497D01*
X16575Y-1455D01*
X16491Y-1420D01*
X16422Y-1400D01*
X16394Y-1393D01*
X16373Y-1386D01*
X16359Y-1379D01*
X16353D01*
X16262Y-1358D01*
X16165Y-1344D01*
X16054Y-1330D01*
X15929Y-1316D01*
X15672Y-1295D01*
X15416Y-1282D01*
X15291Y-1275D01*
X15180D01*
X15076D01*
X14978Y-1268D01*
D02*
G37*
G36*
X15860Y-6341D02*
X15832D01*
X15811D01*
X15804D01*
X15617Y-6355D01*
X15450Y-6382D01*
X15304Y-6417D01*
X15193Y-6466D01*
X15103Y-6508D01*
X15034Y-6549D01*
X14999Y-6577D01*
X14985Y-6584D01*
X14895Y-6681D01*
X14826Y-6778D01*
X14777Y-6882D01*
X14742Y-6972D01*
X14722Y-7056D01*
X14715Y-7125D01*
X14708Y-7167D01*
Y-7181D01*
X14722Y-7312D01*
X14756Y-7430D01*
X14798Y-7535D01*
X14853Y-7625D01*
X14909Y-7694D01*
X14951Y-7750D01*
X14985Y-7778D01*
X14999Y-7791D01*
X15055Y-7833D01*
X15124Y-7875D01*
X15263Y-7937D01*
X15416Y-7979D01*
X15568Y-8013D01*
X15700Y-8027D01*
X15763Y-8034D01*
X15811D01*
X15853Y-8041D01*
X15888D01*
X15908D01*
X15915D01*
X16026D01*
X16124Y-8034D01*
X16221Y-8020D01*
X16304Y-8006D01*
X16387Y-7986D01*
X16457Y-7972D01*
X16519Y-7951D01*
X16575Y-7930D01*
X16623Y-7902D01*
X16665Y-7882D01*
X16734Y-7847D01*
X16769Y-7819D01*
X16783Y-7812D01*
X16873Y-7722D01*
X16935Y-7625D01*
X16984Y-7535D01*
X17012Y-7444D01*
X17033Y-7361D01*
X17040Y-7299D01*
X17047Y-7257D01*
Y-7243D01*
X17040Y-7181D01*
X17033Y-7111D01*
X16998Y-6993D01*
X16942Y-6889D01*
X16887Y-6792D01*
X16831Y-6716D01*
X16776Y-6660D01*
X16741Y-6625D01*
X16727Y-6611D01*
X16595Y-6521D01*
X16443Y-6452D01*
X16290Y-6410D01*
X16144Y-6376D01*
X16012Y-6355D01*
X15950Y-6348D01*
X15901D01*
X15860Y-6341D01*
D02*
G37*
G36*
X14978Y-19173D02*
X14902D01*
X14846D01*
X14812D01*
X14798D01*
X14597D01*
X14409Y-19180D01*
X14229Y-19187D01*
X14076Y-19194D01*
X13930Y-19201D01*
X13799Y-19215D01*
X13681Y-19221D01*
X13577Y-19235D01*
X13486Y-19249D01*
X13403Y-19256D01*
X13340Y-19270D01*
X13285Y-19277D01*
X13243Y-19284D01*
X13216Y-19291D01*
X13202Y-19298D01*
X13195D01*
X13070Y-19340D01*
X12959Y-19381D01*
X12876Y-19430D01*
X12806Y-19471D01*
X12751Y-19506D01*
X12716Y-19541D01*
X12695Y-19562D01*
X12688Y-19568D01*
X12640Y-19638D01*
X12605Y-19700D01*
X12577Y-19770D01*
X12563Y-19832D01*
X12549Y-19888D01*
X12542Y-19929D01*
Y-19964D01*
X12549Y-20047D01*
X12563Y-20117D01*
X12591Y-20186D01*
X12612Y-20249D01*
X12640Y-20290D01*
X12667Y-20332D01*
X12681Y-20353D01*
X12688Y-20360D01*
X12751Y-20422D01*
X12834Y-20478D01*
X12924Y-20526D01*
X13021Y-20568D01*
X13112Y-20603D01*
X13181Y-20623D01*
X13209Y-20630D01*
X13229Y-20637D01*
X13243Y-20644D01*
X13250D01*
X13340Y-20665D01*
X13438Y-20686D01*
X13549Y-20700D01*
X13674Y-20714D01*
X13924Y-20734D01*
X14180Y-20748D01*
X14305Y-20755D01*
X14416D01*
X14527Y-20762D01*
X14617D01*
X14694D01*
X14749D01*
X14784D01*
X14798D01*
X14999D01*
X15193Y-20755D01*
X15367Y-20748D01*
X15527Y-20741D01*
X15672Y-20734D01*
X15804Y-20721D01*
X15922Y-20707D01*
X16026Y-20700D01*
X16116Y-20686D01*
X16193Y-20672D01*
X16255Y-20658D01*
X16311Y-20651D01*
X16353Y-20644D01*
X16380Y-20637D01*
X16394Y-20630D01*
X16401D01*
X16526Y-20589D01*
X16637Y-20547D01*
X16720Y-20505D01*
X16790Y-20457D01*
X16845Y-20422D01*
X16880Y-20388D01*
X16901Y-20367D01*
X16908Y-20360D01*
X16956Y-20290D01*
X16991Y-20228D01*
X17012Y-20158D01*
X17026Y-20096D01*
X17040Y-20041D01*
X17047Y-19999D01*
Y-19964D01*
X17040Y-19881D01*
X17026Y-19811D01*
X17005Y-19742D01*
X16977Y-19687D01*
X16949Y-19638D01*
X16928Y-19596D01*
X16915Y-19576D01*
X16908Y-19568D01*
X16845Y-19506D01*
X16762Y-19451D01*
X16672Y-19402D01*
X16575Y-19360D01*
X16491Y-19326D01*
X16422Y-19305D01*
X16394Y-19298D01*
X16373Y-19291D01*
X16359Y-19284D01*
X16353D01*
X16262Y-19263D01*
X16165Y-19249D01*
X16054Y-19235D01*
X15929Y-19221D01*
X15672Y-19201D01*
X15416Y-19187D01*
X15291Y-19180D01*
X15180D01*
X15076D01*
X14978Y-19173D01*
D02*
G37*
G36*
X1140Y23982D02*
X-685D01*
Y23115D01*
X-678Y23010D01*
Y22920D01*
X-671Y22837D01*
Y22761D01*
X-664Y22691D01*
Y22629D01*
X-657Y22580D01*
X-650Y22539D01*
Y22504D01*
X-643Y22476D01*
X-636Y22441D01*
Y22427D01*
X-609Y22317D01*
X-567Y22212D01*
X-526Y22122D01*
X-477Y22053D01*
X-428Y21990D01*
X-387Y21942D01*
X-359Y21914D01*
X-352Y21907D01*
X-262Y21838D01*
X-165Y21789D01*
X-67Y21747D01*
X23Y21727D01*
X99Y21713D01*
X169Y21699D01*
X210D01*
X217D01*
X224D01*
X328Y21706D01*
X425Y21720D01*
X509Y21747D01*
X578Y21775D01*
X641Y21803D01*
X682Y21831D01*
X717Y21845D01*
X724Y21851D01*
X800Y21907D01*
X863Y21976D01*
X918Y22046D01*
X967Y22108D01*
X1001Y22164D01*
X1022Y22212D01*
X1036Y22240D01*
X1043Y22254D01*
X1057Y22309D01*
X1078Y22372D01*
X1085Y22441D01*
X1099Y22525D01*
X1119Y22691D01*
X1126Y22858D01*
X1133Y23017D01*
X1140Y23087D01*
Y23982D01*
D02*
G37*
G36*
X2271Y12177D02*
X92Y10713D01*
X2271D01*
Y12177D01*
D02*
G37*
G36*
X3285Y-16409D02*
X3257D01*
X3243D01*
X3153Y-16416D01*
X3070Y-16443D01*
X2993Y-16485D01*
X2931Y-16527D01*
X2882Y-16568D01*
X2840Y-16610D01*
X2820Y-16638D01*
X2813Y-16645D01*
X2792Y-16679D01*
X2771Y-16721D01*
X2736Y-16818D01*
X2702Y-16929D01*
X2667Y-17040D01*
X2646Y-17144D01*
X2625Y-17228D01*
X2611Y-17262D01*
Y-17290D01*
X2605Y-17304D01*
Y-17311D01*
X2563Y-17491D01*
X2528Y-17644D01*
X2493Y-17776D01*
X2466Y-17880D01*
X2445Y-17963D01*
X2424Y-18019D01*
X2417Y-18054D01*
X2410Y-18067D01*
X2660D01*
X2813D01*
X2938Y-18060D01*
X3042Y-18054D01*
X3125Y-18047D01*
X3181Y-18033D01*
X3222Y-18026D01*
X3250Y-18019D01*
X3257D01*
X3340Y-17984D01*
X3416Y-17943D01*
X3486Y-17894D01*
X3548Y-17838D01*
X3597Y-17797D01*
X3632Y-17755D01*
X3652Y-17727D01*
X3659Y-17720D01*
X3729Y-17609D01*
X3784Y-17498D01*
X3819Y-17387D01*
X3847Y-17290D01*
X3861Y-17207D01*
X3868Y-17144D01*
X3875Y-17103D01*
Y-17089D01*
X3868Y-16985D01*
X3847Y-16888D01*
X3812Y-16804D01*
X3777Y-16728D01*
X3750Y-16672D01*
X3715Y-16631D01*
X3694Y-16603D01*
X3687Y-16596D01*
X3611Y-16534D01*
X3541Y-16485D01*
X3465Y-16457D01*
X3396Y-16430D01*
X3333Y-16416D01*
X3285Y-16409D01*
D02*
G37*
G36*
X1917Y-26375D02*
X1737Y-26381D01*
X1584Y-26409D01*
X1445Y-26451D01*
X1335Y-26500D01*
X1244Y-26548D01*
X1182Y-26590D01*
X1140Y-26618D01*
X1126Y-26631D01*
X1071Y-26680D01*
X1029Y-26735D01*
X953Y-26840D01*
X897Y-26951D01*
X863Y-27055D01*
X842Y-27152D01*
X835Y-27221D01*
X828Y-27249D01*
Y-27291D01*
X842Y-27422D01*
X869Y-27547D01*
X918Y-27659D01*
X967Y-27749D01*
X1022Y-27825D01*
X1071Y-27880D01*
X1099Y-27915D01*
X1112Y-27929D01*
X1223Y-28019D01*
X1355Y-28082D01*
X1487Y-28130D01*
X1619Y-28165D01*
X1737Y-28186D01*
X1786Y-28193D01*
X1827Y-28200D01*
X1869Y-28207D01*
X1897D01*
X1911D01*
X1917D01*
Y-26375D01*
D02*
G37*
%LPD*%
M02*
