G04*
G04 #@! TF.GenerationSoftware,Altium Limited,Altium Designer,22.7.1 (60)*
G04*
G04 Layer_Physical_Order=1*
G04 Layer_Color=25308*
%FSLAX25Y25*%
%MOIN*%
G70*
G04*
G04 #@! TF.SameCoordinates,4E350FCD-7793-4D70-B8A6-44CA439EF18F*
G04*
G04*
G04 #@! TF.FilePolarity,Positive*
G04*
G01*
G75*
%ADD13R,0.03347X0.02756*%
%ADD14R,0.02900X0.11000*%
G04:AMPARAMS|DCode=15|XSize=29mil|YSize=110mil|CornerRadius=7.25mil|HoleSize=0mil|Usage=FLASHONLY|Rotation=0.000|XOffset=0mil|YOffset=0mil|HoleType=Round|Shape=RoundedRectangle|*
%AMROUNDEDRECTD15*
21,1,0.02900,0.09550,0,0,0.0*
21,1,0.01450,0.11000,0,0,0.0*
1,1,0.01450,0.00725,-0.04775*
1,1,0.01450,-0.00725,-0.04775*
1,1,0.01450,-0.00725,0.04775*
1,1,0.01450,0.00725,0.04775*
%
%ADD15ROUNDEDRECTD15*%
%ADD16R,0.02362X0.02756*%
%ADD17R,0.04331X0.03150*%
%ADD24C,0.02000*%
%ADD25C,0.00500*%
%ADD26C,0.02600*%
G36*
X39000Y-51000D02*
X-34000D01*
Y52000D01*
X-4932D01*
X-4856Y51748D01*
X-4810Y51500D01*
X-5355Y50684D01*
X-5549Y49709D01*
X-5355Y48733D01*
X-5243Y48566D01*
Y47200D01*
X-10650D01*
Y42743D01*
X-12137D01*
X-12304Y42855D01*
X-13280Y43049D01*
X-14255Y42855D01*
X-15082Y42302D01*
X-15634Y41475D01*
X-15829Y40500D01*
X-15634Y39524D01*
X-15082Y38698D01*
X-14255Y38145D01*
X-13280Y37951D01*
X-12304Y38145D01*
X-12137Y38257D01*
X-10650D01*
Y33800D01*
X-8759D01*
X-8425Y33300D01*
X-8618Y32835D01*
X-8728Y32000D01*
X-8618Y31165D01*
X-8441Y30738D01*
X-8709Y30266D01*
X-8771Y30228D01*
X-9476Y30088D01*
X-10113Y29663D01*
X-10538Y29026D01*
X-10688Y28275D01*
Y25743D01*
X-23200D01*
X-24058Y25572D01*
X-24786Y25086D01*
X-26074Y23799D01*
X-26560Y23071D01*
X-26730Y22213D01*
Y17058D01*
X-26869D01*
Y16723D01*
X-28749D01*
X-29607Y16553D01*
X-30335Y16066D01*
X-32586Y13816D01*
X-33072Y13088D01*
X-33243Y12229D01*
Y3465D01*
X-33072Y2606D01*
X-32586Y1879D01*
X-28912Y-1795D01*
X-28184Y-2282D01*
X-27326Y-2452D01*
X-26730D01*
Y-34213D01*
X-26560Y-35071D01*
X-26074Y-35799D01*
X-19286Y-42586D01*
X-18558Y-43072D01*
X-17700Y-43243D01*
X-10688D01*
Y-45775D01*
X-10538Y-46526D01*
X-10113Y-47163D01*
X-9476Y-47588D01*
X-8725Y-47738D01*
X-7275D01*
X-6524Y-47588D01*
X-6150Y-47339D01*
X-5650Y-47606D01*
Y-47700D01*
X-350D01*
Y-34300D01*
X-2241D01*
X-2575Y-33800D01*
X-2382Y-33335D01*
X-2272Y-32500D01*
X-2382Y-31665D01*
X-2575Y-31200D01*
X-2241Y-30700D01*
X6241D01*
X6575Y-31200D01*
X6382Y-31665D01*
X6272Y-32500D01*
X6382Y-33335D01*
X6575Y-33800D01*
X6241Y-34300D01*
X4350D01*
Y-47700D01*
X9650D01*
Y-35708D01*
X10335Y-35618D01*
X11114Y-35295D01*
X11782Y-34782D01*
X12295Y-34114D01*
X12618Y-33335D01*
X12728Y-32500D01*
X12618Y-31665D01*
X12425Y-31200D01*
X12759Y-30700D01*
X14650D01*
Y-17300D01*
X14243D01*
Y-11996D01*
X16594Y-9645D01*
X18873D01*
Y-4489D01*
X13127D01*
Y-6768D01*
X12335Y-7559D01*
X11873Y-7368D01*
Y-4489D01*
X6127D01*
Y-6768D01*
X5414Y-7481D01*
X5373Y-7542D01*
X4873Y-7390D01*
Y-4489D01*
X-873D01*
Y-7178D01*
X-1373Y-7329D01*
X-1414Y-7269D01*
X-1915Y-6768D01*
Y-4489D01*
X-7661D01*
Y-7581D01*
X-8123Y-7772D01*
X-9127Y-6768D01*
Y-4489D01*
X-14873D01*
Y-9645D01*
X-12594D01*
X-10243Y-11996D01*
Y-17300D01*
X-10650D01*
Y-30700D01*
X-8759D01*
X-8425Y-31200D01*
X-8618Y-31665D01*
X-8728Y-32500D01*
X-8618Y-33335D01*
X-8441Y-33762D01*
X-8709Y-34234D01*
X-8771Y-34271D01*
X-9476Y-34412D01*
X-10113Y-34837D01*
X-10538Y-35474D01*
X-10688Y-36225D01*
Y-38757D01*
X-16771D01*
X-22244Y-33283D01*
Y-1352D01*
X-22132Y-1185D01*
X-21938Y-209D01*
X-22132Y766D01*
X-22685Y1593D01*
X-23512Y2146D01*
X-24487Y2340D01*
X-25463Y2146D01*
X-25630Y2034D01*
X-26397D01*
X-28757Y4394D01*
Y11300D01*
X-27820Y12237D01*
X-26869D01*
Y11902D01*
X-22106D01*
Y17058D01*
X-22244D01*
Y21257D01*
X-10688D01*
Y18725D01*
X-10538Y17974D01*
X-10113Y17337D01*
X-9476Y16912D01*
X-8725Y16762D01*
X-7275D01*
X-6524Y16912D01*
X-6150Y17162D01*
X-5650Y16894D01*
Y16800D01*
X-350D01*
Y30200D01*
X-2241D01*
X-2575Y30700D01*
X-2382Y31165D01*
X-2272Y32000D01*
X-2382Y32835D01*
X-2575Y33300D01*
X-2241Y33800D01*
X6241D01*
X6575Y33300D01*
X6382Y32835D01*
X6272Y32000D01*
X6382Y31165D01*
X6575Y30700D01*
X6241Y30200D01*
X4350D01*
Y16800D01*
X9650D01*
Y28792D01*
X10335Y28882D01*
X11114Y29205D01*
X11782Y29718D01*
X12295Y30386D01*
X12618Y31165D01*
X12728Y32000D01*
X12618Y32835D01*
X12425Y33300D01*
X12759Y33800D01*
X14650D01*
Y38257D01*
X24092D01*
X24259Y38145D01*
X25235Y37951D01*
X26210Y38145D01*
X27037Y38698D01*
X27590Y39524D01*
X27784Y40500D01*
X27590Y41475D01*
X27037Y42302D01*
X26210Y42855D01*
X25235Y43049D01*
X24259Y42855D01*
X24092Y42743D01*
X14650D01*
Y47200D01*
X9243D01*
Y48566D01*
X9355Y48733D01*
X9549Y49709D01*
X9355Y50684D01*
X8810Y51500D01*
X8856Y51748D01*
X8932Y52000D01*
X39000D01*
Y-51000D01*
D02*
G37*
%LPC*%
G36*
X23894Y16058D02*
X19131D01*
Y15723D01*
X8700D01*
X7842Y15553D01*
X7114Y15066D01*
X414Y8366D01*
X-72Y7639D01*
X-243Y6780D01*
Y6457D01*
X-355Y6289D01*
X-549Y5314D01*
X-355Y4338D01*
X-243Y4171D01*
Y2007D01*
X-873D01*
Y-3149D01*
X4873D01*
Y2007D01*
X4243D01*
Y4171D01*
X4355Y4338D01*
X4549Y5314D01*
X4409Y6017D01*
X9629Y11237D01*
X19131D01*
Y10902D01*
X23894D01*
Y16058D01*
D02*
G37*
G36*
X20513Y9243D02*
X13150D01*
X12292Y9072D01*
X11564Y8586D01*
X10561Y7583D01*
X10475Y7641D01*
X9500Y7835D01*
X8525Y7641D01*
X7698Y7088D01*
X7145Y6261D01*
X6951Y5286D01*
X7145Y4310D01*
X7184Y4252D01*
Y4092D01*
X6928Y3708D01*
X6757Y2850D01*
Y2007D01*
X6127D01*
Y-3149D01*
X11873D01*
Y2007D01*
X11869D01*
X11718Y2507D01*
X12054Y2732D01*
X13132Y3810D01*
X13593Y3564D01*
X13451Y2850D01*
X13542Y2394D01*
X13225Y2007D01*
X13127D01*
Y-3149D01*
X18873D01*
Y2007D01*
X18775D01*
X18458Y2394D01*
X18549Y2850D01*
X18355Y3825D01*
X18067Y4257D01*
X18334Y4757D01*
X19131D01*
Y3422D01*
X23894D01*
Y8578D01*
X22107D01*
X22099Y8586D01*
X21371Y9072D01*
X20513Y9243D01*
D02*
G37*
G36*
X31381Y8578D02*
X26619D01*
Y3422D01*
X26757D01*
Y603D01*
X26928Y-255D01*
X27414Y-983D01*
X27418Y-987D01*
X27458Y-1185D01*
X28010Y-2012D01*
X28837Y-2564D01*
X29813Y-2758D01*
X30788Y-2564D01*
X31615Y-2012D01*
X32168Y-1185D01*
X32362Y-209D01*
X32168Y766D01*
X31615Y1593D01*
X31243Y1842D01*
Y3422D01*
X31381D01*
Y8578D01*
D02*
G37*
G36*
X-14619Y17058D02*
X-19381D01*
Y11902D01*
X-15294D01*
X-7182Y3790D01*
X-7143Y3593D01*
X-7031Y3425D01*
Y2007D01*
X-7661D01*
Y-3149D01*
X-1915D01*
Y2007D01*
X-2545D01*
Y3425D01*
X-2433Y3593D01*
X-2239Y4568D01*
X-2433Y5544D01*
X-2985Y6370D01*
X-3812Y6923D01*
X-4010Y6962D01*
X-12863Y15816D01*
X-13591Y16302D01*
X-14449Y16473D01*
X-14619D01*
Y17058D01*
D02*
G37*
G36*
Y9578D02*
X-19381D01*
Y4422D01*
X-17594D01*
X-15051Y1879D01*
X-14873Y1760D01*
Y-3149D01*
X-9127D01*
Y2007D01*
X-10118D01*
Y3425D01*
X-10007Y3593D01*
X-9813Y4568D01*
X-10007Y5544D01*
X-10559Y6370D01*
X-11386Y6923D01*
X-12361Y7117D01*
X-13337Y6923D01*
X-13585Y6757D01*
X-14619Y7791D01*
Y9578D01*
D02*
G37*
%LPD*%
D13*
X2000Y-571D02*
D03*
Y-7067D02*
D03*
X16000D02*
D03*
Y-571D02*
D03*
X9000Y-7067D02*
D03*
Y-571D02*
D03*
X-4788Y-7067D02*
D03*
Y-571D02*
D03*
X-12000Y-7067D02*
D03*
Y-571D02*
D03*
D14*
X12000Y40500D02*
D03*
X7000D02*
D03*
X2000D02*
D03*
X-3000D02*
D03*
X-8000D02*
D03*
X-3000Y23500D02*
D03*
X2000D02*
D03*
X7000D02*
D03*
X12000D02*
D03*
Y-24000D02*
D03*
X7000D02*
D03*
X2000D02*
D03*
X-3000D02*
D03*
X-8000D02*
D03*
X-3000Y-41000D02*
D03*
X2000D02*
D03*
X7000D02*
D03*
X12000D02*
D03*
D15*
X-8000Y23500D02*
D03*
Y-41000D02*
D03*
D16*
X-24487Y14480D02*
D03*
X-17000D02*
D03*
Y7000D02*
D03*
X29000Y6000D02*
D03*
X21513D02*
D03*
Y13480D02*
D03*
D17*
X-23700Y7000D02*
D03*
X28213Y13480D02*
D03*
D24*
X2000Y-571D02*
Y5314D01*
X28803Y13480D02*
X34000D01*
X28213D02*
X28803D01*
X34000D02*
Y18261D01*
X-21000Y9700D02*
Y15302D01*
Y20000D01*
X18343Y-49657D02*
X35000Y-33000D01*
X12000Y-49657D02*
X18343D01*
X12000D02*
Y-41000D01*
X2000Y-48485D02*
Y-41000D01*
Y-48485D02*
X3172Y-49657D01*
X12000D01*
X7000Y40500D02*
Y49709D01*
X2000Y40500D02*
Y49709D01*
X-3000Y40926D02*
Y49709D01*
X-3213Y40713D02*
X-3000Y40926D01*
X-31000Y3465D02*
Y12229D01*
Y3465D02*
X-27326Y-209D01*
X-31000Y12229D02*
X-28749Y14480D01*
X-24487D01*
X12000Y40500D02*
X25235D01*
X16000Y-571D02*
Y2850D01*
X-24487Y14480D02*
Y22213D01*
X-23200Y23500D01*
X-8000D01*
X10828Y16080D02*
X19291D01*
X28803Y13480D02*
X29378Y12905D01*
Y12315D02*
Y12905D01*
Y12315D02*
X35000Y6693D01*
Y-33000D02*
Y6693D01*
X-24487Y-34213D02*
Y-209D01*
X-17700Y-41000D02*
X-8000D01*
X-24487Y-34213D02*
X-17700Y-41000D01*
X-10550Y16000D02*
X1278D01*
X2450Y17172D01*
X-18000Y18261D02*
X-12811D01*
X-10550Y16000D01*
X-21000Y15302D02*
X-18844Y17458D01*
X-18802D01*
X-18000Y18261D01*
X-23700Y7000D02*
X-23110D01*
X-22535Y7575D01*
Y8165D01*
X-21000Y9700D01*
X-27326Y-209D02*
X-24487D01*
X29000Y603D02*
Y6000D01*
Y603D02*
X29813Y-209D01*
X27622Y13480D02*
X28213D01*
X27047Y14055D02*
X27622Y13480D01*
X27047Y14055D02*
Y14646D01*
X25235Y16458D02*
X27047Y14646D01*
X19669Y16458D02*
X25235D01*
X19291Y16080D02*
X19669Y16458D01*
X7623Y16080D02*
X10828D01*
X11550Y23050D02*
X12000Y23500D01*
X11550Y16802D02*
Y23050D01*
X10828Y16080D02*
X11550Y16802D01*
X2450Y17172D02*
X3622Y16000D01*
X7543D01*
X7623Y16080D01*
X10468Y4318D02*
X13150Y7000D01*
X9427Y5213D02*
X9500Y5286D01*
X9427Y3277D02*
Y5213D01*
X9000Y2850D02*
X9427Y3277D01*
X2000Y5314D02*
Y6780D01*
X-3213Y40713D02*
X-3000Y40500D01*
X-16622Y6622D02*
X-13465Y3465D01*
X-13280Y40500D02*
X-8000D01*
X-12361Y-209D02*
Y4568D01*
X21513Y6000D02*
Y6197D01*
X21331Y6378D02*
X21513Y6197D01*
X21135Y6378D02*
X21331D01*
X20513Y7000D02*
X21135Y6378D01*
X13150Y7000D02*
X20513D01*
X9000Y-571D02*
Y2850D01*
X8700Y13480D02*
X21513D01*
X2000Y6780D02*
X8700Y13480D01*
X-17000Y14411D02*
Y14480D01*
Y14411D02*
X-16819Y14230D01*
X-14449D01*
X-4788Y4568D01*
Y-571D02*
Y4568D01*
X-12361Y-209D02*
X-12000Y-571D01*
X-16819Y6622D02*
X-16622D01*
X-17000Y6803D02*
X-16819Y6622D01*
X-17000Y6803D02*
Y7000D01*
X-8000Y-24000D02*
Y-11067D01*
X-11327Y-7740D02*
X-8000Y-11067D01*
X-11327Y-7740D02*
Y-7445D01*
X-11705Y-7067D02*
X-11327Y-7445D01*
X-12000Y-7067D02*
X-11705D01*
X-3000Y-24000D02*
Y-8855D01*
X-4115Y-7740D02*
X-3000Y-8855D01*
X-4115Y-7740D02*
Y-7445D01*
X-4493Y-7067D02*
X-4115Y-7445D01*
X-4788Y-7067D02*
X-4493D01*
X2000Y-24000D02*
Y-7067D01*
X7000Y-24000D02*
Y-9067D01*
X8327Y-7740D01*
Y-7445D01*
X8705Y-7067D01*
X9000D01*
X12000Y-24000D02*
Y-11067D01*
X15327Y-7740D01*
Y-7445D01*
X15705Y-7067D01*
X16000D01*
D25*
X9500Y32000D02*
D03*
X-5500D02*
D03*
X9500Y-32500D02*
D03*
X-5500D02*
D03*
D26*
X2000Y5314D02*
D03*
X34000Y18261D02*
D03*
X-21000Y20000D02*
D03*
X7000Y49709D02*
D03*
X2000D02*
D03*
X-3000D02*
D03*
X25235Y40500D02*
D03*
X16000Y2850D02*
D03*
X-24487Y-209D02*
D03*
X29813D02*
D03*
X9500Y5286D02*
D03*
X-4788Y4568D02*
D03*
X-13280Y40500D02*
D03*
X-12361Y4568D02*
D03*
M02*
