G04*
G04 #@! TF.GenerationSoftware,Altium Limited,Altium Designer,22.7.1 (60)*
G04*
G04 Layer_Physical_Order=2*
G04 Layer_Color=11436288*
%FSLAX25Y25*%
%MOIN*%
G70*
G04*
G04 #@! TF.SameCoordinates,4E350FCD-7793-4D70-B8A6-44CA439EF18F*
G04*
G04*
G04 #@! TF.FilePolarity,Positive*
G04*
G01*
G75*
%ADD24C,0.02000*%
%ADD25C,0.00500*%
%ADD26C,0.02600*%
G36*
X39000Y-51000D02*
X-34000D01*
Y52000D01*
X-4932D01*
X-4856Y51748D01*
X-4810Y51500D01*
X-5355Y50684D01*
X-5549Y49709D01*
X-5355Y48733D01*
X-5243Y48566D01*
Y41826D01*
X-5072Y40968D01*
X-4586Y40240D01*
X-2243Y37897D01*
Y33805D01*
X-2575Y33668D01*
X-2743Y33664D01*
X-3218Y34282D01*
X-3886Y34795D01*
X-4665Y35118D01*
X-5500Y35228D01*
X-6335Y35118D01*
X-7114Y34795D01*
X-7782Y34282D01*
X-8295Y33614D01*
X-8618Y32835D01*
X-8728Y32000D01*
X-8618Y31165D01*
X-8295Y30386D01*
X-7782Y29718D01*
X-7114Y29205D01*
X-6335Y28882D01*
X-5500Y28772D01*
X-4665Y28882D01*
X-3886Y29205D01*
X-3218Y29718D01*
X-2743Y30336D01*
X-2575Y30332D01*
X-2243Y30195D01*
Y10285D01*
X-5566Y6962D01*
X-5763Y6923D01*
X-6590Y6370D01*
X-7143Y5544D01*
X-7337Y4568D01*
X-7143Y3593D01*
X-6590Y2766D01*
X-6243Y2534D01*
X-6395Y2034D01*
X-10755D01*
X-10906Y2534D01*
X-10559Y2766D01*
X-10007Y3593D01*
X-9813Y4568D01*
X-10007Y5544D01*
X-10118Y5711D01*
Y39582D01*
X-10289Y40440D01*
X-10775Y41168D01*
X-10885Y41278D01*
X-10925Y41475D01*
X-11477Y42302D01*
X-12304Y42855D01*
X-13280Y43049D01*
X-14255Y42855D01*
X-15082Y42302D01*
X-15634Y41475D01*
X-15829Y40500D01*
X-15634Y39524D01*
X-15082Y38698D01*
X-14605Y38379D01*
Y5711D01*
X-14716Y5544D01*
X-14910Y4568D01*
X-14716Y3593D01*
X-14164Y2766D01*
X-13817Y2534D01*
X-13968Y2034D01*
X-23345D01*
X-23512Y2146D01*
X-24487Y2340D01*
X-25463Y2146D01*
X-26290Y1593D01*
X-26842Y766D01*
X-27036Y-209D01*
X-26842Y-1185D01*
X-26290Y-2012D01*
X-25463Y-2564D01*
X-24487Y-2758D01*
X-23512Y-2564D01*
X-23345Y-2452D01*
X28670D01*
X28837Y-2564D01*
X29813Y-2758D01*
X30788Y-2564D01*
X31615Y-2012D01*
X32168Y-1185D01*
X32362Y-209D01*
X32168Y766D01*
X31615Y1593D01*
X30788Y2146D01*
X29813Y2340D01*
X28837Y2146D01*
X28670Y2034D01*
X19063D01*
X18856Y2534D01*
X26821Y10498D01*
X27307Y11226D01*
X27478Y12085D01*
Y39357D01*
X27590Y39524D01*
X27784Y40500D01*
X27590Y41475D01*
X27037Y42302D01*
X26210Y42855D01*
X25235Y43049D01*
X24259Y42855D01*
X23432Y42302D01*
X22880Y41475D01*
X22686Y40500D01*
X22880Y39524D01*
X22991Y39357D01*
Y13014D01*
X15222Y5244D01*
X15024Y5205D01*
X14198Y4652D01*
X13645Y3825D01*
X13451Y2850D01*
X13536Y2420D01*
X13219Y2034D01*
X-3181D01*
X-3333Y2534D01*
X-2985Y2766D01*
X-2433Y3593D01*
X-2393Y3790D01*
X-1027Y5156D01*
X-485Y4992D01*
X-355Y4338D01*
X198Y3511D01*
X1025Y2959D01*
X2000Y2765D01*
X2976Y2959D01*
X3802Y3511D01*
X4355Y4338D01*
X4394Y4536D01*
X6342Y6483D01*
X6828Y7211D01*
X6999Y8070D01*
Y29255D01*
X7499Y29502D01*
X7886Y29205D01*
X8665Y28882D01*
X9500Y28772D01*
X10335Y28882D01*
X11114Y29205D01*
X11682Y29641D01*
X12182Y29486D01*
Y11140D01*
X8722Y7680D01*
X8525Y7641D01*
X7698Y7088D01*
X7145Y6261D01*
X6951Y5286D01*
X7145Y4310D01*
X7698Y3483D01*
X8525Y2931D01*
X9500Y2737D01*
X10475Y2931D01*
X11302Y3483D01*
X11855Y4310D01*
X11894Y4508D01*
X16011Y8625D01*
X16498Y9353D01*
X16668Y10211D01*
Y37909D01*
X16498Y38768D01*
X16011Y39496D01*
X9243Y46264D01*
Y48566D01*
X9355Y48733D01*
X9549Y49709D01*
X9355Y50684D01*
X8810Y51500D01*
X8856Y51748D01*
X8932Y52000D01*
X39000D01*
Y-51000D01*
D02*
G37*
%LPC*%
G36*
X9500Y-29272D02*
X8665Y-29382D01*
X7886Y-29705D01*
X7218Y-30218D01*
X6705Y-30886D01*
X6382Y-31665D01*
X6272Y-32500D01*
X6382Y-33335D01*
X6705Y-34114D01*
X7218Y-34782D01*
X7886Y-35295D01*
X8665Y-35618D01*
X9500Y-35728D01*
X10335Y-35618D01*
X11114Y-35295D01*
X11782Y-34782D01*
X12295Y-34114D01*
X12618Y-33335D01*
X12728Y-32500D01*
X12618Y-31665D01*
X12295Y-30886D01*
X11782Y-30218D01*
X11114Y-29705D01*
X10335Y-29382D01*
X9500Y-29272D01*
D02*
G37*
G36*
X-5500D02*
X-6335Y-29382D01*
X-7114Y-29705D01*
X-7782Y-30218D01*
X-8295Y-30886D01*
X-8618Y-31665D01*
X-8728Y-32500D01*
X-8618Y-33335D01*
X-8295Y-34114D01*
X-7782Y-34782D01*
X-7114Y-35295D01*
X-6335Y-35618D01*
X-5500Y-35728D01*
X-4665Y-35618D01*
X-3886Y-35295D01*
X-3218Y-34782D01*
X-2705Y-34114D01*
X-2382Y-33335D01*
X-2272Y-32500D01*
X-2382Y-31665D01*
X-2705Y-30886D01*
X-3218Y-30218D01*
X-3886Y-29705D01*
X-4665Y-29382D01*
X-5500Y-29272D01*
D02*
G37*
%LPD*%
D24*
X-4788Y4568D02*
X0Y9356D01*
X-3000Y41826D02*
X0Y38826D01*
Y9356D02*
Y38826D01*
X9500Y5286D02*
X14425Y10211D01*
X7000Y45335D02*
X14425Y37909D01*
Y10211D02*
Y37909D01*
X-3000Y41826D02*
Y49709D01*
X7000Y45335D02*
Y49709D01*
X2000Y43335D02*
Y49709D01*
X4756Y8070D02*
Y40579D01*
X2000Y43335D02*
X4756Y40579D01*
X25235Y12085D02*
Y40500D01*
X16000Y2850D02*
X25235Y12085D01*
X-24487Y-209D02*
X29813D01*
X2000Y5314D02*
X4756Y8070D01*
X-12361Y4568D02*
Y39582D01*
X-13280Y40500D02*
X-12361Y39582D01*
D25*
X9500Y32000D02*
D03*
X-5500D02*
D03*
X9500Y-32500D02*
D03*
X-5500D02*
D03*
D26*
X2000Y5314D02*
D03*
X34000Y18261D02*
D03*
X-21000Y20000D02*
D03*
X7000Y49709D02*
D03*
X2000D02*
D03*
X-3000D02*
D03*
X25235Y40500D02*
D03*
X16000Y2850D02*
D03*
X-24487Y-209D02*
D03*
X29813D02*
D03*
X9500Y5286D02*
D03*
X-4788Y4568D02*
D03*
X-13280Y40500D02*
D03*
X-12361Y4568D02*
D03*
M02*
